<?xml version="1.0" standalone="no"?>
<!DOCTYPE svg PUBLIC "-//W3C//DTD SVG 20010904//EN"
 "http://www.w3.org/TR/2001/REC-SVG-20010904/DTD/svg10.dtd">
<svg version="1.0" xmlns="http://www.w3.org/2000/svg"
 width="451.000000pt" height="451.000000pt" viewBox="0 0 451.000000 451.000000"
 preserveAspectRatio="xMidYMid meet">
<metadata>
Created by potrace 1.11, written by Peter Selinger 2001-2013
</metadata>
<g transform="translate(0.000000,451.000000) scale(0.100000,-0.100000)"
fill="#000000" stroke="none">
<path d="M798 4482 c-26 -16 -58 -37 -70 -48 -13 -10 -34 -26 -48 -35 -24 -16
-38 -28 -102 -85 -15 -13 -32 -24 -37 -24 -6 0 -19 -19 -30 -42 -11 -24 -36
-72 -55 -108 -19 -35 -33 -66 -30 -69 2 -2 -2 -11 -10 -20 -12 -14 -23 -54
-30 -111 -1 -9 -5 -20 -8 -25 -6 -10 -20 -135 -21 -187 0 -16 -5 -28 -9 -28
-5 0 -7 -4 -4 -8 3 -5 -1 -9 -9 -9 -11 0 -12 4 -3 14 13 16 20 85 7 77 -5 -3
-9 -11 -9 -17 0 -7 -10 -13 -21 -14 -12 -1 -19 1 -15 4 3 3 1 14 -5 24 -12 24
-1 25 18 2 13 -16 13 -16 3 5 -6 12 -15 22 -20 22 -13 0 -28 -32 -23 -48 4
-11 1 -11 -14 -1 -20 12 -20 12 -1 31 19 19 17 38 -5 38 -9 0 -9 -2 0 -8 8 -5
9 -13 3 -22 -8 -12 -13 -13 -30 -2 -17 10 -24 10 -44 -3 -16 -11 -26 -13 -31
-5 -3 6 -10 8 -15 5 -5 -3 -11 4 -15 15 -6 18 -8 18 -29 5 -12 -8 -26 -12 -30
-8 -4 4 -11 1 -16 -7 -6 -8 -10 -10 -10 -4 0 7 -7 14 -15 18 -13 4 -15 -51
-15 -439 0 -342 3 -445 13 -448 9 -4 8 -6 -2 -6 -11 -1 -11 -4 -1 -16 7 -8 8
-15 3 -15 -5 0 -9 -19 -9 -41 0 -23 2 -37 4 -30 7 20 20 12 15 -9 -3 -11 -8
-18 -12 -16 -3 2 -7 -8 -7 -22 -1 -15 1 -21 3 -14 3 6 9 10 14 7 5 -4 7 0 6 7
-2 7 -2 10 0 5 3 -4 10 -4 16 0 8 5 8 2 0 -9 -7 -8 -9 -19 -5 -23 4 -5 2 -5
-5 -2 -7 5 -10 -1 -8 -19 2 -19 -1 -24 -13 -19 -13 5 -13 3 -1 -11 19 -23 19
-56 1 -77 -15 -16 -14 -17 1 -11 9 3 17 10 17 16 0 5 5 6 12 2 7 -5 8 -3 3 7
-12 18 -16 99 -5 99 4 0 7 -8 5 -17 -1 -10 2 -24 8 -30 6 -9 6 -13 -2 -13 -6
0 -11 -5 -11 -11 0 -5 5 -7 12 -3 7 4 8 3 4 -5 -4 -6 -3 -17 3 -24 6 -8 6 -18
1 -27 -7 -10 -10 -11 -10 -2 0 10 -4 10 -20 0 -11 -7 -20 -17 -20 -22 0 -4 6
-3 14 3 21 18 44 3 41 -25 -1 -14 4 -31 11 -39 11 -10 11 -14 1 -18 -9 -3 -9
-7 0 -17 9 -10 9 -18 1 -34 -10 -18 -9 -19 3 -9 12 10 14 7 13 -15 0 -15 3
-30 9 -33 14 -10 -1 -29 -18 -23 -9 4 -13 -1 -11 -12 3 -19 -14 -45 -26 -38
-4 2 -10 -1 -14 -8 -4 -7 -4 -10 1 -6 4 4 14 3 22 -4 10 -8 17 -8 25 0 7 7 19
12 27 12 11 0 10 -4 -5 -15 -13 -11 -14 -14 -4 -13 8 2 14 -3 12 -9 -1 -7 3
-13 10 -13 6 0 8 -3 5 -7 -4 -3 -1 -13 6 -21 10 -13 9 -14 -2 -7 -11 6 -13 4
-8 -9 5 -12 3 -15 -6 -11 -6 4 -3 -1 8 -11 17 -14 17 -16 2 -11 -9 4 -17 3
-18 -1 -1 -4 -2 -21 -4 -39 -2 -25 0 -29 10 -20 9 9 10 16 3 25 -6 7 -8 15 -4
19 3 4 12 -2 20 -12 12 -17 12 -21 -3 -32 -13 -10 -14 -13 -1 -14 8 -1 19 -1
23 0 4 1 3 -7 -2 -18 -8 -14 -7 -21 2 -25 6 -2 1 -3 -12 -2 -14 2 -27 9 -29
16 -3 7 0 10 6 6 6 -3 13 -2 17 3 3 6 -4 8 -16 6 -33 -6 -35 -14 -11 -31 12
-8 20 -19 17 -24 -3 -4 2 -11 10 -14 13 -4 13 -2 5 14 -9 16 -8 18 5 14 9 -4
13 -9 11 -12 -3 -3 -1 -11 5 -19 6 -7 8 -13 4 -13 -4 0 -1 -8 6 -17 10 -11 1
-9 -27 7 -28 16 -40 29 -37 40 4 13 4 13 -6 0 -11 -15 -10 -17 36 -47 17 -12
17 -13 -6 -33 l-25 -21 -13 25 c-15 30 -26 35 -16 9 6 -16 5 -17 -13 -3 -18
14 -18 14 -5 -2 7 -10 17 -16 21 -13 4 3 10 -2 14 -10 4 -12 10 -13 31 -3 14
6 25 15 25 20 0 4 5 8 10 8 6 0 9 -3 9 -7 -3 -21 2 -33 13 -27 7 4 8 3 4 -5
-5 -8 -12 -9 -20 -2 -7 6 -17 6 -26 0 -13 -8 -11 -13 10 -30 16 -14 19 -19 7
-15 -9 3 -17 1 -17 -5 0 -7 10 -9 27 -4 16 4 25 3 21 -1 -4 -4 -2 -14 5 -22 9
-13 9 -14 0 -8 -7 4 -13 2 -13 -3 0 -6 6 -11 13 -11 8 0 7 -3 -2 -9 -11 -7
-21 -3 -37 14 -19 21 -23 22 -28 8 -4 -9 -4 -18 -1 -21 3 -3 5 1 5 8 0 8 13 2
32 -16 17 -16 28 -23 24 -16 -4 6 -2 12 3 12 12 0 12 1 17 -55 3 -22 5 -46 6
-52 1 -7 5 -13 10 -13 5 0 6 -5 2 -11 -4 -7 -9 -8 -13 -1 -4 7 -13 5 -26 -5
-16 -13 -17 -15 -3 -10 34 12 45 -2 44 -53 -1 -26 2 -46 6 -44 4 3 5 -3 1 -12
-4 -11 -3 -15 4 -11 7 5 10 -2 8 -18 -1 -14 1 -28 6 -30 4 -3 8 -13 8 -23 0
-29 8 -86 15 -109 4 -13 2 -24 -5 -29 -8 -5 -10 -2 -6 9 5 14 3 14 -24 -1 -29
-17 -38 -32 -19 -32 6 0 10 5 10 11 0 19 33 5 36 -16 3 -22 -14 -47 -27 -39
-5 3 -9 0 -9 -5 0 -6 6 -11 13 -11 8 0 7 -4 -3 -11 -13 -9 -13 -10 0 -6 8 2
14 10 12 17 -2 7 5 9 20 5 13 -3 18 -3 13 2 -12 9 -15 73 -4 73 5 0 7 -12 5
-27 -1 -16 5 -37 13 -47 9 -11 10 -16 3 -12 -6 4 -12 2 -12 -4 0 -6 -4 -9 -9
-5 -5 3 -17 -5 -25 -17 -15 -20 -17 -21 -28 -5 -10 12 -17 14 -28 6 -13 -9
-13 -10 0 -6 8 2 21 -3 28 -12 11 -14 14 -14 30 4 10 11 23 21 30 22 19 5 14
-15 -8 -27 -22 -12 -46 -50 -31 -50 5 0 13 9 16 20 8 26 24 26 22 0 -1 -11 -5
-20 -9 -20 -4 0 -12 -10 -19 -21 -8 -15 -8 -19 0 -15 11 7 15 -5 12 -31 -1 -7
3 -13 9 -13 6 0 8 5 5 10 -3 6 -2 10 4 10 17 0 21 -17 6 -30 -7 -6 -12 -17 -9
-24 3 -7 -4 -20 -15 -30 -11 -10 -18 -23 -15 -27 7 -12 34 -11 34 1 0 5 -8 7
-17 3 -14 -5 -13 -1 5 19 13 14 22 29 21 34 -3 20 2 28 10 15 6 -9 8 -4 8 17
-1 17 -6 28 -11 24 -5 -3 -7 2 -3 11 3 9 2 19 -3 22 -11 7 -9 45 2 45 4 0 8
-3 9 -7 0 -5 3 -19 5 -33 2 -14 6 -41 8 -60 2 -19 7 -43 11 -52 4 -9 4 -22 0
-28 -3 -5 -2 -10 3 -10 5 0 8 -16 7 -35 -1 -20 4 -40 12 -46 15 -13 7 -32 -10
-23 -7 3 -4 -1 5 -9 10 -8 15 -17 11 -20 -10 -10 -25 -8 -19 2 3 5 -1 12 -10
15 -21 8 -24 8 -24 -5 0 -5 5 -7 12 -3 8 5 9 2 5 -9 -3 -9 -3 -16 1 -16 35 6
38 -1 38 -81 0 -68 -3 -80 -16 -75 -13 4 -13 3 1 -7 16 -13 22 -91 7 -82 -5 3
-8 0 -8 -5 0 -6 4 -11 9 -11 5 0 9 -20 8 -45 0 -25 -6 -45 -12 -45 -6 0 -6 -3
1 -8 16 -10 24 -62 10 -62 -7 0 -7 -3 -1 -8 6 -4 11 -28 13 -54 2 -41 0 -47
-15 -42 -14 4 -14 3 2 -8 24 -16 30 -35 15 -53 -8 -9 -8 -14 0 -17 6 -2 12
-18 12 -36 1 -17 5 -32 10 -32 4 0 8 -5 8 -11 0 -6 -6 -9 -14 -6 -8 3 -21 -4
-30 -18 -14 -21 -14 -24 -1 -19 8 4 15 11 15 18 0 20 50 13 63 -9 6 -11 19
-28 28 -39 10 -10 16 -23 13 -27 -2 -4 4 -12 13 -18 15 -9 14 -10 -7 -7 -14 2
-24 9 -23 15 5 20 -15 12 -20 -9 -5 -19 6 -19 753 -20 l759 0 -4 21 c-3 12 -1
18 3 15 4 -4 7 -12 7 -18 0 -6 8 -12 18 -14 9 -1 17 3 17 9 0 9 2 9 8 1 11
-18 84 -13 77 4 -3 7 -5 18 -5 24 0 7 -4 7 -13 0 -10 -8 -13 -5 -15 13 -1 13
2 26 7 30 5 3 7 -5 3 -17 -5 -21 -4 -22 12 -9 9 8 16 10 15 5 -4 -23 2 -45 11
-39 6 4 9 1 8 -5 -2 -7 7 -14 20 -16 24 -4 27 3 11 26 -10 13 -10 13 -6 -1 3
-9 -1 -16 -8 -16 -10 0 -11 5 -4 18 13 26 11 33 -6 19 -10 -9 -15 -9 -15 -1 0
6 5 11 10 11 6 0 5 9 -2 23 -7 12 -9 17 -4 11 7 -9 15 -6 28 10 19 21 19 21 4
-5 -15 -24 -13 -39 6 -39 5 0 7 4 3 9 -3 5 1 15 8 23 14 14 17 21 17 39 0 8 5
8 15 -1 12 -10 16 -8 24 11 6 18 5 26 -8 31 -12 5 -13 7 -2 7 8 1 26 -9 39
-21 21 -19 24 -20 19 -5 -4 10 0 29 9 43 14 20 19 22 32 12 13 -11 14 -10 9 7
-8 26 7 54 16 31 4 -9 4 -23 0 -31 -3 -10 -1 -15 7 -13 7 2 15 -4 17 -12 4
-13 3 -13 -6 0 -10 13 -11 13 -11 0 0 -13 -1 -13 -11 0 -9 13 -10 13 -6 0 2
-8 10 -14 17 -12 7 2 9 -5 5 -17 -4 -14 0 -23 17 -31 22 -11 22 -10 4 4 -11 9
-17 19 -13 22 4 4 14 1 22 -6 9 -7 15 -9 14 -4 -2 12 12 54 18 54 3 0 19 -10
36 -22 18 -12 27 -15 20 -8 -10 11 -9 16 4 25 13 10 13 14 3 20 -8 5 -11 4 -7
-2 4 -6 0 -14 -9 -17 -27 -10 -27 -1 1 33 27 31 26 63 -1 40 -11 -9 -14 -9
-14 0 0 7 -5 9 -11 5 -8 -4 -7 -9 2 -15 7 -4 17 -5 21 -3 4 3 8 1 8 -5 0 -18
-17 -21 -30 -6 -7 8 -18 15 -24 15 -6 0 -4 -5 4 -11 13 -9 12 -10 -3 -5 -10 3
-20 0 -23 -8 -5 -14 -34 -18 -34 -4 0 4 7 8 15 8 17 0 19 11 5 28 -6 6 -7 10
-3 7 3 -3 13 4 20 15 8 11 19 17 25 14 7 -5 9 -1 5 9 -3 9 1 21 11 29 13 11
14 11 7 -2 -5 -8 -10 -24 -11 -36 -2 -18 2 -22 24 -19 18 2 34 -5 49 -21 12
-13 28 -24 35 -23 7 0 3 5 -9 11 -27 13 -29 21 -6 39 15 12 16 12 10 -3 -3
-10 -1 -20 5 -24 7 -4 8 -3 4 5 -10 15 60 85 75 75 8 -5 9 -3 4 6 -6 10 -4 12
9 7 11 -4 15 -3 11 4 -4 6 -13 8 -20 5 -9 -3 -13 2 -12 15 1 19 12 25 20 12 2
-5 2 -3 1 4 -2 7 1 15 6 18 6 4 10 1 10 -5 0 -6 7 -4 16 5 14 13 14 19 4 28
-10 9 -11 9 -5 -2 6 -10 4 -12 -5 -6 -9 6 -11 4 -5 -6 5 -8 5 -11 0 -7 -4 4
-29 -7 -54 -26 -25 -18 -53 -31 -61 -29 -13 4 -13 3 0 -6 13 -10 13 -11 0 -11
-12 0 -12 -2 -2 -9 11 -7 11 -9 -2 -14 -9 -4 -24 -4 -33 -1 -15 5 -16 4 -3 -5
8 -6 11 -11 5 -12 -5 0 -20 -2 -32 -5 -16 -3 -23 1 -23 12 0 10 6 14 14 11 27
-11 26 7 -1 26 -16 10 -20 17 -10 13 9 -3 17 -1 17 4 0 6 5 10 11 10 8 0 7 -6
-2 -16 -12 -15 -11 -16 11 -10 20 6 22 5 10 -4 -13 -9 -12 -11 4 -8 14 2 20
12 21 31 1 15 -2 27 -7 27 -4 0 -8 5 -8 11 0 8 6 7 16 -2 15 -12 16 -11 10 11
-5 20 -3 18 11 -8 18 -31 20 -31 41 -16 12 8 20 20 17 25 -4 5 2 6 12 2 10 -3
15 -3 11 2 -4 4 -3 14 3 22 15 18 4 17 -29 -3 l-27 -16 22 20 c17 15 19 22 10
32 -9 9 -9 11 0 6 6 -3 13 -3 16 1 2 5 2 2 0 -5 -1 -8 3 -12 9 -9 7 2 12 11
12 20 -1 9 2 15 6 12 5 -3 11 3 13 12 4 17 5 17 6 1 0 -10 5 -18 11 -18 5 0 9
6 7 13 -1 8 9 11 31 10 28 -2 32 1 22 12 -6 8 -19 11 -28 8 -12 -5 -11 -1 4
15 14 15 27 20 39 16 15 -6 16 -4 7 13 -16 28 -5 35 29 18 16 -9 30 -11 34 -6
3 5 -4 12 -15 16 -24 8 -26 21 -4 29 15 6 15 8 -2 29 -10 12 -12 17 -5 10 11
-10 17 -9 26 4 10 13 14 13 20 3 5 -9 4 -11 -3 -6 -11 7 -17 -6 -13 -28 1 -5
-4 -13 -11 -17 -7 -4 -9 -11 -5 -15 11 -11 36 16 30 34 -4 15 -3 15 6 2 10
-13 15 -8 12 12 -2 17 18 6 24 -12 4 -11 11 -18 16 -14 6 4 6 11 -1 19 -8 9
-8 15 0 20 5 3 10 15 10 25 0 10 5 22 11 26 8 4 9 -1 4 -17 -7 -21 -6 -22 8
-10 11 9 15 23 12 40 -4 21 -4 22 3 6 8 -18 10 -18 26 10 9 17 16 23 15 15 -3
-28 1 -43 8 -36 12 11 14 56 3 56 -5 0 -10 5 -10 11 0 8 6 7 17 -2 15 -12 16
-12 10 6 -7 19 -6 19 7 2 8 -11 17 -14 20 -8 4 5 2 12 -4 16 -5 3 -10 11 -10
18 0 6 7 2 16 -9 15 -19 15 -18 9 3 -3 12 -1 24 4 27 6 4 9 -7 8 -25 -1 -18 3
-34 10 -36 8 -3 10 6 8 24 -2 16 1 36 6 44 8 10 8 7 3 -11 -6 -21 -5 -23 8
-13 8 7 18 10 21 6 4 -3 8 -1 8 5 1 7 2 18 3 25 1 6 -5 18 -14 25 -13 10 -13
11 3 6 14 -5 16 -2 11 12 -4 11 -4 16 0 12 4 -3 9 -14 10 -24 2 -10 9 -20 16
-22 7 -3 10 0 6 7 -4 6 -2 9 7 5 8 -3 14 2 14 11 0 8 -7 14 -16 13 -11 -2 -17
5 -18 22 -2 22 -1 23 5 4 6 -18 11 -20 31 -13 19 8 21 12 11 24 -7 9 -8 15 -2
15 5 0 12 -7 16 -15 3 -8 12 -12 21 -9 8 3 15 1 15 -5 0 -6 4 -11 8 -11 5 0 9
7 9 15 0 16 -24 28 -39 19 -5 -4 -5 4 2 16 8 15 18 20 31 17 22 -6 24 3 7 23
-7 8 -3 6 10 -4 23 -20 31 -10 10 13 -9 10 -9 12 -1 7 6 -3 18 3 27 15 13 19
18 20 31 9 10 -8 15 -9 15 -1 0 6 -9 16 -20 23 -11 7 -20 17 -20 22 0 5 3 6 7
3 3 -4 12 -2 20 5 11 9 11 14 -2 28 -11 12 -13 20 -5 25 6 3 10 3 9 -2 -3 -20
2 -27 11 -13 8 12 9 11 7 -7 -2 -11 -9 -28 -16 -37 -8 -10 -9 -16 -3 -16 6 0
14 5 17 10 3 6 12 10 18 10 7 0 4 -5 -5 -11 -10 -5 -18 -14 -18 -20 0 -5 11
-2 25 7 23 15 24 18 10 34 -8 9 -15 20 -15 25 0 5 6 1 13 -8 11 -16 13 -16 25
3 11 18 11 21 -5 18 -11 -2 -18 4 -19 15 -1 10 0 11 3 3 2 -8 12 -12 24 -9 10
3 19 0 19 -6 0 -6 3 -10 8 -10 20 3 32 -2 27 -12 -4 -6 -14 -8 -22 -5 -9 4
-11 2 -7 -6 4 -6 3 -8 -2 -5 -6 3 -16 1 -24 -5 -12 -8 -11 -9 5 -4 17 5 16 3
-5 -14 -19 -15 -20 -19 -6 -13 16 5 18 3 12 -12 -12 -31 42 -73 59 -46 3 5 0
13 -6 17 -8 4 -9 3 -5 -4 4 -7 1 -12 -8 -12 -8 0 -18 5 -21 10 -3 6 -2 10 4
10 6 0 8 7 4 15 -3 9 -2 15 3 14 27 -5 36 1 24 16 -15 18 1 20 19 3 9 -8 11
-8 8 -2 -4 7 0 15 9 18 9 4 14 9 11 13 -4 3 -13 1 -21 -6 -11 -9 -13 -7 -13
14 0 20 2 23 13 14 8 -6 14 -8 14 -4 0 5 10 0 22 -11 15 -13 18 -14 10 -3 -10
14 -10 18 4 23 9 4 14 9 11 13 -4 3 -13 0 -22 -7 -8 -7 -15 -8 -15 -2 0 5 7
16 16 23 14 11 18 10 30 -6 8 -10 14 -13 14 -6 0 7 5 9 13 4 6 -4 4 5 -5 20
-21 30 -24 47 -6 29 7 -7 16 -12 22 -12 5 0 1 7 -10 16 -14 12 -15 14 -3 11
13 -4 16 0 12 16 -3 16 -2 18 5 8 8 -11 10 -11 14 0 4 12 8 11 23 -1 10 -8 16
-10 12 -3 -4 6 -1 13 5 16 7 3 -2 4 -21 3 -21 0 -36 4 -39 13 -3 8 0 11 7 7 6
-4 11 -3 11 2 0 6 -7 13 -16 16 -10 4 -13 2 -8 -6 4 -7 3 -8 -5 -4 -6 4 -11 4
-10 -1 3 -20 -2 -33 -13 -30 -7 1 -12 -4 -10 -11 2 -9 -2 -11 -10 -6 -20 13
-48 15 -48 4 0 -10 13 -14 36 -11 9 1 20 -15 42 -62 2 -5 -5 -3 -16 4 -12 7
-19 16 -17 19 2 3 0 12 -4 19 -6 9 -11 10 -15 2 -4 -6 -1 -11 6 -11 9 0 9 -3
-2 -10 -11 -7 -11 -10 -2 -10 7 0 10 -5 7 -10 -9 -15 -27 -1 -21 16 3 7 1 16
-4 19 -10 6 -12 2 -13 -32 -1 -10 -7 -21 -13 -26 -14 -8 -83 22 -84 37 0 4 11
1 25 -8 29 -19 44 -21 27 -4 -7 7 -12 16 -12 22 0 5 7 1 16 -10 13 -16 15 -16
10 -1 -9 28 4 50 20 36 17 -14 18 -5 3 23 -8 15 -8 23 3 32 7 6 10 7 6 2 -16
-21 -7 -28 12 -11 20 18 21 18 14 -1 -7 -16 -5 -17 8 -7 8 7 18 10 21 6 4 -3
7 -1 7 5 0 6 -9 13 -19 17 -19 6 -19 7 -3 24 20 21 30 18 13 -3 -10 -12 -9
-15 8 -13 13 1 19 6 17 14 -3 7 1 10 8 7 7 -3 13 2 13 11 0 9 -6 14 -12 11 -6
-2 -12 2 -12 9 0 8 7 11 15 7 11 -4 13 -1 7 8 -5 8 -4 11 3 6 6 -3 16 3 22 14
9 17 14 19 26 9 11 -9 14 -8 14 4 0 8 -5 17 -12 19 -7 3 -5 7 6 11 11 4 15 3
10 -4 -4 -7 -1 -10 7 -7 8 3 13 11 11 17 -1 6 5 14 13 17 8 3 13 10 10 15 -3
4 4 6 15 4 13 -2 20 1 20 11 0 8 5 14 11 14 5 0 7 5 3 12 -4 7 -3 8 5 4 6 -4
14 0 17 9 4 9 13 14 20 11 7 -3 16 -1 19 4 4 6 1 10 -5 10 -6 0 2 11 17 24 22
19 31 22 42 13 12 -10 14 -9 8 6 -4 11 -3 16 3 12 6 -3 10 1 10 9 0 9 12 19
26 22 14 4 21 9 16 13 -6 4 -4 11 4 19 8 7 14 9 14 5 0 -4 7 1 15 11 8 11 15
14 15 7 0 -7 5 -9 10 -6 6 4 8 10 5 15 -5 7 24 38 32 33 1 -2 6 -3 11 -3 4 0
0 5 -8 10 -11 8 -8 9 12 6 15 -3 30 0 33 5 4 5 1 9 -6 9 -8 0 -8 4 1 15 7 9
15 13 18 10 3 -2 16 8 29 23 21 23 23 23 14 5 -12 -23 -5 -29 14 -15 13 9 13
22 0 42 -7 13 -6 13 8 2 17 -15 37 -9 37 11 0 8 -3 8 -9 -2 -6 -9 -11 -10 -15
-2 -4 6 -2 12 3 12 6 1 17 2 24 3 6 0 12 8 12 16 0 8 6 16 13 16 6 1 16 2 22
3 5 0 9 7 7 14 -1 6 5 10 13 8 8 -2 21 -4 28 -4 14 0 16 -13 3 -22 -5 -3 -13
-1 -16 5 -5 8 -11 7 -21 -1 -11 -9 -12 -14 -3 -20 8 -4 4 -9 -10 -14 -12 -3
-19 -10 -16 -15 7 -11 -34 -35 -55 -32 -10 1 -11 -1 -2 -4 8 -4 5 -11 -10 -24
-18 -14 -26 -16 -37 -7 -12 10 -13 9 -6 -2 6 -10 4 -12 -5 -6 -9 6 -11 4 -5
-6 8 -12 6 -12 -8 0 -11 9 -17 10 -17 2 0 -6 6 -11 13 -11 9 0 8 -3 -2 -9 -7
-5 -9 -11 -5 -13 5 -3 3 -3 -4 -1 -7 1 -11 -1 -8 -5 2 -4 1 -14 -5 -22 -7 -12
-9 -10 -9 8 0 13 -4 20 -10 17 -6 -4 -8 -10 -5 -14 7 -12 -30 -43 -40 -34 -4
5 -5 2 -1 -5 5 -8 2 -11 -6 -10 -8 2 -12 -5 -10 -17 2 -15 0 -16 -6 -7 -7 11
-10 10 -16 -3 -3 -9 -10 -13 -16 -10 -5 3 -10 1 -10 -5 0 -6 -4 -8 -10 -5 -6
4 -7 -1 -4 -12 5 -15 4 -15 -5 -3 -5 8 -13 11 -18 7 -4 -5 -1 -12 6 -17 17
-10 43 -2 35 11 -3 5 -1 9 4 9 6 0 13 -7 16 -16 9 -22 8 -24 -8 -18 -7 3 -21
-2 -30 -11 -9 -9 -17 -14 -17 -11 -1 3 -2 10 -3 15 0 5 -5 13 -10 18 -5 5 -6
3 -2 -4 7 -12 -5 -18 -27 -14 -5 1 -6 -3 -2 -8 3 -6 -3 -8 -15 -6 -11 2 -18 0
-15 -5 3 -5 14 -7 25 -5 11 2 20 0 20 -4 0 -16 -13 -20 -31 -10 -15 8 -18 6
-13 -8 5 -14 4 -15 -4 -4 -6 8 -12 9 -16 3 -9 -14 20 -22 33 -9 8 8 11 8 11 0
0 -7 -5 -15 -10 -18 -6 -4 -8 -10 -5 -15 3 -5 1 -11 -5 -15 -5 -3 -10 -16 -9
-28 0 -14 2 -17 6 -7 2 8 7 22 10 30 4 8 7 19 7 23 1 4 7 11 14 16 8 5 13 12
12 17 -1 5 3 10 9 12 7 2 9 -4 5 -15 -4 -10 6 -1 20 19 15 21 32 38 38 38 7 0
6 -5 -2 -15 -10 -12 -9 -16 4 -21 9 -3 14 -9 12 -13 -3 -4 6 -7 19 -7 13 0 21
4 19 8 -3 5 -8 6 -12 4 -4 -2 -15 1 -24 8 -16 11 -15 15 12 45 16 17 24 31 17
30 -25 -3 -38 1 -32 10 5 10 37 7 55 -4 6 -3 10 -1 10 4 0 6 -7 11 -15 11 -20
0 -19 14 2 31 15 12 16 12 10 -3 -4 -13 -2 -15 10 -11 12 5 14 3 8 -8 -5 -8 1
-5 13 5 12 11 22 24 21 30 -3 23 1 36 12 36 6 0 8 -9 3 -22 -6 -20 -4 -20 16
5 12 15 25 26 28 23 2 -3 -1 -12 -7 -20 -8 -10 -9 -16 -1 -21 6 -4 9 -1 8 6
-2 7 4 13 12 14 8 0 24 17 35 38 16 31 18 39 6 46 -8 5 -9 11 -3 15 12 7 36
-20 28 -33 -3 -5 1 -11 9 -14 14 -6 11 16 -6 38 -4 6 0 23 10 38 16 24 19 26
31 12 10 -12 10 -15 -3 -15 -22 0 -30 -17 -18 -37 6 -11 11 -13 11 -5 0 7 5
10 12 6 7 -4 8 -3 4 5 -4 6 -12 9 -17 6 -5 -4 -9 -2 -9 2 0 5 10 13 23 18 12
6 21 16 20 22 -1 6 4 14 12 17 8 3 15 0 15 -6 0 -6 3 -9 6 -5 3 3 3 11 -1 17
-5 8 -13 7 -30 -4 -21 -14 -22 -14 -22 10 0 18 3 22 11 14 9 -6 16 -6 25 3 9
9 14 9 21 -3 10 -16 10 -17 14 26 1 6 7 19 15 28 8 9 11 19 7 23 -3 3 -6 1 -6
-6 0 -9 -5 -9 -21 0 -17 9 -20 8 -14 -2 6 -8 4 -10 -5 -4 -9 6 -11 4 -5 -5 6
-9 4 -11 -5 -5 -8 5 -11 4 -6 -3 3 -6 2 -13 -3 -16 -5 -4 -12 -2 -16 3 -8 14
37 53 53 46 9 -3 12 0 9 7 -2 7 2 19 10 27 13 12 14 11 9 -10 -7 -22 -6 -23 5
-4 18 29 41 44 59 38 13 -4 13 -3 0 5 -9 7 -18 8 -26 1 -8 -7 -14 -6 -19 1 -4
6 -3 10 2 9 17 -3 53 14 47 22 -3 5 2 9 11 9 9 0 13 5 9 11 -4 7 1 7 16 -1 13
-7 20 -8 16 -2 -4 6 2 15 11 21 10 6 13 11 8 11 -6 0 -16 -5 -23 -12 -16 -16
-16 4 1 21 10 11 10 13 0 7 -8 -4 -13 -2 -13 5 0 7 -3 9 -7 6 -3 -4 -13 -1
-21 6 -13 10 -14 9 -8 -1 6 -10 0 -9 -23 2 -17 9 -31 19 -31 22 0 3 5 2 12 -2
7 -4 8 -3 4 5 -4 6 -11 9 -16 6 -4 -3 -10 -2 -13 2 -2 5 -2 3 -1 -4 2 -7 -1
-15 -6 -18 -6 -4 -10 5 -10 18 0 20 -4 23 -30 19 -19 -3 -30 0 -30 8 0 7 8 9
22 4 21 -6 20 -4 -4 15 -18 14 -25 28 -21 39 5 14 3 15 -7 5 -10 -9 -10 -15
-1 -26 6 -8 9 -22 5 -30 -5 -14 -8 -14 -20 -2 -20 19 -18 30 3 14 15 -13 15
-12 3 7 -10 17 -16 19 -26 10 -6 -6 -9 -15 -6 -21 3 -5 -1 -4 -10 3 -13 10
-17 10 -22 0 -3 -7 -4 -4 -3 7 2 17 -4 20 -35 20 -20 0 -35 2 -32 6 2 4 -3 12
-11 19 -9 8 -15 8 -15 2 0 -12 -23 -10 -30 3 -3 5 6 9 20 10 14 0 31 4 39 9
11 7 13 4 9 -12 -4 -16 -2 -19 10 -15 9 4 13 2 9 -4 -3 -5 0 -10 8 -10 11 0
12 4 4 13 -6 7 -6 15 -1 18 5 3 15 -6 22 -19 7 -13 18 -22 23 -18 6 4 7 1 2
-7 -5 -9 -4 -11 4 -6 6 4 9 11 6 16 -3 5 3 11 13 14 10 4 19 14 19 22 0 15 -2
15 -13 -1 -10 -13 -17 -14 -31 -6 -18 10 -16 12 9 15 7 0 14 10 15 21 3 20 3
20 -6 0 -5 -11 -10 -16 -10 -11 -1 5 -8 2 -17 -5 -14 -11 -19 -10 -36 11 -19
23 -19 24 -1 31 15 6 15 8 2 8 -9 1 -23 -7 -30 -16 -8 -9 -9 -14 -3 -10 7 4
14 0 17 -7 4 -10 -1 -14 -14 -13 -10 1 -19 5 -19 9 0 18 -4 24 -33 41 -25 15
-35 17 -55 7 -24 -11 -41 -2 -42 22 0 4 -8 5 -17 1 -10 -3 -15 -3 -11 2 4 4 2
15 -5 23 -10 13 -9 15 6 9 9 -3 17 -2 17 3 0 11 -23 13 -33 3 -4 -3 -2 -12 4
-20 8 -9 8 -13 1 -13 -6 0 -17 9 -25 21 -11 15 -17 17 -22 8 -6 -9 -12 -7 -22
6 -18 26 -16 10 3 -20 9 -13 13 -29 9 -35 -4 -6 -3 -9 2 -8 4 1 19 -4 33 -11
l24 -14 -17 26 c-22 34 -21 40 2 25 11 -7 18 -16 15 -20 -6 -9 10 -40 19 -39
20 3 27 0 24 -11 -1 -8 10 -13 30 -13 18 -1 29 3 26 8 -3 6 -1 7 6 3 6 -4 9
-12 5 -17 -3 -5 -10 -7 -15 -4 -5 4 -9 0 -9 -7 0 -8 -3 -9 -8 -3 -4 6 -13 10
-19 11 -29 2 -33 5 -33 17 0 7 -9 13 -20 14 -13 1 -18 -2 -14 -9 4 -7 2 -8 -5
-4 -6 4 -9 12 -6 17 4 5 1 9 -4 9 -6 0 -11 -6 -11 -12 0 -10 -2 -10 -9 0 -4 8
-12 13 -17 13 -5 -1 -17 6 -27 14 -19 16 -31 20 -23 7 3 -5 -1 -9 -9 -9 -11 0
-12 4 -4 14 14 17 -3 17 -20 1 -10 -11 -11 -10 -6 3 4 11 -1 15 -20 15 -14 0
-25 -4 -25 -10 0 -5 -2 -7 -5 -4 -14 14 14 54 39 56 14 1 26 -3 26 -8 0 -6 -5
-9 -11 -7 -6 1 -14 -5 -16 -13 -4 -13 -3 -13 6 0 10 13 11 13 11 0 1 -12 2
-12 10 2 13 21 2 48 -16 41 -10 -4 -12 0 -8 11 3 9 9 14 13 12 4 -3 7 6 7 20
0 13 -4 24 -9 24 -5 0 -7 -7 -4 -15 6 -14 -7 -28 -28 -31 -5 0 -15 -2 -22 -2
-7 -1 -10 -9 -6 -19 4 -10 2 -14 -4 -10 -5 4 -18 0 -29 -7 -10 -8 -25 -11 -33
-8 -10 4 -12 1 -6 -8 5 -9 4 -11 -4 -6 -6 4 -9 11 -6 16 3 5 -4 14 -15 20 -15
8 -20 8 -20 -2 0 -10 -3 -10 -9 1 -5 8 -22 15 -38 16 -21 1 -27 6 -25 21 2 17
1 17 -10 3 -11 -13 -16 -14 -25 -4 -10 10 -9 16 2 25 10 8 15 9 15 2 0 -6 13
-9 29 -7 23 3 29 0 24 -10 -3 -8 -9 -13 -13 -10 -5 3 -11 1 -14 -4 -4 -5 2 -8
11 -6 10 1 26 -2 36 -7 9 -5 17 -5 16 -1 -3 20 2 34 11 28 5 -3 6 -13 3 -21
-5 -13 -1 -15 18 -10 13 3 18 3 11 0 -6 -3 -9 -10 -6 -16 4 -6 10 -5 15 3 7
11 11 12 17 1 7 -10 11 -10 22 3 11 13 10 14 -6 8 -17 -6 -17 -5 -6 10 8 8 19
14 27 11 7 -3 15 -1 19 4 8 14 -27 11 -45 -5 -9 -7 -24 -11 -33 -7 -22 9 -20
27 3 19 25 -8 49 21 32 38 -10 9 -11 8 -5 -7 6 -15 4 -17 -6 -11 -9 5 -11 4
-6 -3 4 -7 2 -12 -3 -12 -6 0 -11 5 -11 11 0 8 -5 7 -15 -1 -13 -10 -19 -10
-34 4 -11 10 -25 14 -37 9 -16 -6 -17 -5 -6 9 10 13 10 18 1 24 -7 4 -17 1
-23 -7 -13 -16 -36 -23 -36 -10 0 5 7 11 15 15 8 3 15 11 14 18 0 10 -2 10 -6
1 -2 -7 -9 -13 -14 -13 -6 0 -8 4 -5 9 4 5 -5 8 -18 7 -24 -3 -60 26 -48 39 4
3 -1 3 -11 -1 -9 -3 -17 -11 -17 -17 0 -6 3 -7 7 -4 9 9 34 -13 27 -24 -3 -5
-10 -9 -15 -9 -6 0 -7 5 -3 12 4 7 3 8 -5 4 -6 -4 -14 0 -17 9 -5 12 -9 13
-20 4 -16 -13 -19 2 -4 17 6 6 5 15 -1 24 -9 13 -10 13 -6 -2 8 -24 -4 -30
-20 -10 -10 14 -12 14 -8 1 4 -9 0 -16 -7 -16 -7 0 -21 -4 -30 -8 -11 -4 -20
0 -27 14 -9 16 -8 21 9 26 20 6 19 25 -1 25 -6 0 -8 -4 -5 -9 3 -5 -1 -12 -10
-15 -24 -9 -26 -8 -14 14 8 16 7 26 -5 42 -8 13 -15 17 -15 11 0 -7 5 -15 10
-18 6 -3 10 -11 10 -17 0 -7 -6 -6 -15 2 -9 8 -15 8 -15 2 0 -6 6 -12 13 -15
6 -2 9 -8 4 -12 -4 -5 -18 2 -32 15 -20 18 -28 21 -37 12 -16 -16 -33 -15 -20
1 7 8 6 17 -3 30 -13 18 -14 17 -20 -2 -5 -17 -9 -18 -20 -8 -7 6 -10 17 -7
22 3 6 -1 5 -9 -1 -8 -6 -36 -10 -64 -9 -62 3 -63 3 -47 13 7 5 32 7 57 6 27
-1 43 1 39 7 -3 5 -15 7 -26 3 -13 -4 -18 -2 -14 4 10 16 -13 25 -29 12 -10
-9 -19 -8 -36 1 l-22 12 24 13 c13 7 18 13 12 14 -7 0 -21 -8 -30 -18 -17 -18
-19 -17 -50 6 -18 13 -33 20 -33 15 0 -5 11 -15 25 -21 14 -6 25 -16 25 -22 0
-7 -9 -5 -21 4 -12 8 -27 12 -35 9 -9 -3 -12 2 -9 19 6 30 -18 68 -30 48 -5
-8 -4 -11 2 -7 6 4 14 0 17 -9 9 -24 7 -28 -7 -16 -10 8 -16 6 -25 -9 -7 -11
-17 -17 -23 -13 -6 3 -3 11 8 19 10 7 15 17 11 21 -4 4 -2 14 5 23 10 14 10
14 -5 3 -14 -11 -17 -10 -21 5 -4 16 -5 16 -6 1 0 -9 4 -20 9 -23 13 -8 13
-25 1 -25 -5 0 -13 9 -16 20 -6 20 -7 20 -25 -2 -23 -27 -27 -11 -5 18 19 26
19 43 -1 18 -14 -18 -15 -18 -10 6 3 14 3 19 0 12 -3 -6 -10 -9 -15 -6 -6 3
-5 12 3 22 12 15 11 16 -4 3 -15 -11 -16 -16 -4 -33 8 -11 12 -27 9 -34 -3 -8
1 -22 8 -31 12 -14 11 -15 -10 -8 -18 5 -22 4 -16 -6 6 -11 5 -11 -5 -2 -7 6
-19 9 -26 6 -9 -3 -14 2 -14 16 0 12 -5 21 -11 21 -6 0 -9 -7 -6 -14 4 -10 1
-13 -8 -10 -11 5 -18 44 -7 44 15 0 42 -24 43 -38 0 -11 2 -12 6 -4 3 7 0 19
-7 27 -9 11 -8 14 9 12 16 -1 20 -7 16 -24 -2 -13 0 -21 5 -18 11 7 5 54 -9
68 -9 9 -11 7 -6 -8 5 -15 0 -12 -20 10 -18 21 -24 24 -18 10 6 -18 5 -18 -10
-6 -9 7 -14 17 -11 22 3 5 0 9 -6 9 -7 0 -9 -8 -5 -20 4 -11 2 -20 -4 -20 -10
0 -13 6 -15 39 -1 8 -7 16 -14 17 -7 1 -8 0 -3 -2 6 -3 7 -12 4 -20 -5 -13 -7
-13 -14 -3 -4 8 -11 10 -16 6 -9 -10 18 -28 30 -20 5 3 7 0 5 -8 -3 -8 -11
-13 -18 -11 -11 3 -11 0 -1 -12 7 -9 16 -14 20 -12 4 3 13 1 21 -5 11 -6 12
-9 2 -9 -8 0 -10 -5 -6 -12 4 -7 -2 -5 -13 5 -11 9 -23 14 -26 10 -6 -6 -11
20 -8 40 0 4 -3 7 -8 7 -5 0 -12 10 -16 23 -4 12 -8 24 -9 27 -13 31 -24 91
-22 113 2 15 0 27 -3 27 -4 0 -7 8 -8 18 0 9 -3 60 -7 112 -3 52 -8 147 -11
210 -11 271 -32 403 -86 557 -75 211 -176 344 -365 481 l-72 52 -568 0 -569 0
-47 -28z m-685 -696 c3 -8 -2 -20 -11 -28 -15 -12 -16 -11 -3 5 13 16 12 17
-17 12 -18 -3 -32 -1 -32 4 0 6 9 8 20 6 11 -2 20 0 20 6 0 14 17 11 23 -5z
m100 -3 c4 -3 1 -13 -6 -21 -9 -12 -9 -14 0 -8 7 4 23 1 35 -6 13 -7 28 -11
34 -10 6 1 16 -8 23 -20 6 -13 9 -15 7 -6 -3 10 0 20 6 24 7 4 8 3 4 -4 -4 -7
-3 -12 3 -12 5 0 12 6 14 13 4 8 6 9 6 0 2 -22 -29 -44 -48 -33 -10 5 -21 7
-24 3 -8 -7 -37 22 -37 39 0 8 -4 7 -11 -4 -5 -10 -15 -18 -22 -18 -8 0 -8 3
1 9 18 11 0 17 -44 16 -25 -1 -30 2 -26 17 2 10 9 15 16 11 16 -11 46 -14 45
-5 -4 21 10 30 24 15z m2477 -913 c0 -4 -18 -6 -39 -6 -22 0 -38 3 -36 6 5 8
75 8 75 0z m-2665 -9 c3 -5 2 -12 -3 -15 -5 -3 -9 1 -9 9 0 17 3 19 12 6z
m2779 -43 c4 -32 17 -40 36 -23 21 19 42 12 33 -10 -3 -9 1 -15 8 -15 11 0 11
-3 -1 -11 -13 -9 -13 -10 1 -6 9 3 21 1 27 -5 6 -6 12 -6 17 1 3 6 1 10 -6 9
-6 -2 -14 4 -17 12 -4 12 -1 12 20 -2 16 -11 29 -13 40 -7 23 13 52 1 38 -16
-16 -19 6 -30 65 -30 28 0 56 -4 63 -8 16 -11 15 -28 -2 -21 -7 3 -21 -2 -30
-11 -12 -12 -16 -13 -16 -3 0 10 -3 9 -11 -2 -9 -13 -10 -12 -5 3 6 20 -4 22
-24 5 -12 -11 -12 -10 -1 5 12 15 11 17 -5 14 -11 -1 -25 -6 -32 -11 -8 -5
-12 -3 -10 6 2 7 -2 12 -9 11 -6 -2 -11 6 -10 17 1 11 5 20 9 20 4 0 8 5 8 11
0 6 -5 7 -12 2 -7 -4 -17 -8 -22 -8 -5 0 -12 -9 -17 -20 -5 -14 -8 -15 -8 -5
-1 9 -11 17 -23 18 -19 2 -55 8 -65 11 -2 1 -5 0 -6 -1 -2 -2 -11 3 -20 11
-10 7 -17 10 -17 6 0 -4 -7 -2 -15 5 -19 15 -20 34 -2 27 8 -3 14 1 14 8 0 8
-7 11 -16 7 -14 -5 -14 -4 -2 11 15 19 21 17 25 -5z m251 -58 c-3 -5 -11 -10
-16 -10 -6 0 -7 5 -4 10 3 6 11 10 16 10 6 0 7 -4 4 -10z m-90 -30 c3 -5 1
-10 -4 -10 -6 0 -11 5 -11 10 0 6 2 10 4 10 3 0 8 -4 11 -10z m206 -34 c-6 -7
-6 -17 -1 -26 8 -13 11 -12 22 3 12 16 16 15 53 -10 22 -16 46 -36 53 -46 8
-10 19 -17 25 -16 24 3 38 -1 33 -10 -11 -17 19 -19 37 -3 16 14 19 13 41 -7
19 -17 25 -19 29 -8 9 24 50 15 52 -11 1 -13 -2 -25 -7 -28 -18 -11 -58 -14
-58 -4 0 5 -6 10 -14 10 -8 0 -16 7 -19 15 -4 9 -16 13 -37 10 -16 -2 -30 1
-30 6 0 6 -9 8 -19 4 -11 -3 -22 -1 -26 5 -3 6 -11 7 -17 4 -7 -5 -8 -2 -3 6
6 10 3 12 -13 8 -12 -4 -20 -2 -17 3 3 5 -1 21 -10 36 -13 23 -14 18 -2 -17 1
-3 -2 -6 -8 -7 -5 -2 -10 11 -9 28 0 26 -2 28 -12 15 -12 -17 -29 -22 -19 -6
9 15 -2 12 -19 -6 -9 -9 -16 -11 -16 -4 0 6 -4 8 -10 5 -5 -3 -10 -1 -10 5 0
7 -6 8 -19 0 -16 -8 -19 -7 -16 8 1 9 10 16 19 15 10 0 22 10 28 23 6 13 15
21 20 18 5 -3 5 -11 -1 -18z m42 -73 c-3 -6 -11 -9 -19 -6 -20 7 -17 19 5 19
11 0 17 -6 14 -13z m171 -19 c8 -21 -9 -25 -21 -5 -9 14 -8 18 3 18 7 0 15 -6
18 -13z m187 -47 c-6 -8 -8 -17 -4 -20 3 -4 1 -7 -5 -7 -14 0 -14 2 -6 24 3 9
11 16 16 16 7 0 6 -5 -1 -13z m-161 -7 c0 -5 -5 -10 -11 -10 -5 0 -7 5 -4 10
3 6 8 10 11 10 2 0 4 -4 4 -10z m205 -20 c3 -5 1 -10 -5 -10 -6 0 -8 -4 -5
-10 3 -5 2 -10 -4 -10 -5 0 -9 9 -8 20 1 21 12 26 22 10z m159 -57 c4 -10 4
-14 0 -10 -4 4 -13 2 -20 -4 -9 -8 -11 -5 -7 10 7 25 19 27 27 4z m-41 -28 c4
-8 1 -17 -5 -21 -7 -5 -8 -2 -3 6 6 10 4 12 -10 6 -15 -5 -16 -4 -5 9 15 19
16 19 23 0z m177 -9 c0 -3 -4 -8 -10 -11 -5 -3 -10 -1 -10 4 0 6 5 11 10 11 6
0 10 -2 10 -4z m75 -52 c10 -14 15 -14 34 -4 28 15 55 6 47 -16 -5 -14 -4 -15
8 -5 11 9 15 8 20 -4 3 -9 2 -13 -4 -10 -6 3 -7 -1 -4 -9 9 -23 -9 -19 -24 4
-8 13 -17 18 -25 13 -7 -4 -21 -9 -32 -10 -15 -2 -13 1 8 13 15 8 33 12 40 8
9 -5 9 -4 1 5 -9 10 -17 10 -32 2 -20 -10 -72 5 -72 22 0 13 23 7 35 -9z
m-3875 -60 c0 -14 -3 -14 -15 -4 -8 7 -15 14 -15 16 0 2 7 4 15 4 8 0 15 -7
15 -16z m-25 -23 c-3 -6 -11 -11 -17 -11 -6 0 -6 6 2 15 14 17 26 13 15 -4z
m4120 -9 c-3 -3 -11 0 -18 7 -9 10 -8 11 6 5 10 -3 15 -9 12 -12z m118 -333
c-6 -6 -9 -19 -5 -28 5 -14 4 -14 -11 -2 -13 10 -15 17 -6 27 6 8 16 14 22 14
8 0 8 -3 0 -11z m-4139 -71 c-3 -4 -13 -2 -24 4 -10 7 -17 16 -14 20 3 4 13 2
24 -4 10 -7 17 -16 14 -20z m3991 -88 c3 -5 -1 -23 -10 -41 -15 -28 -18 -29
-29 -13 -9 12 -15 14 -20 6 -4 -7 -13 -12 -19 -12 -7 0 -6 4 3 10 12 8 12 10
1 10 -11 0 -11 3 -1 15 7 8 16 13 20 10 4 -3 13 2 20 10 14 17 26 19 35 5z
m-122 -86 c3 -3 3 -12 0 -20 -4 -11 -9 -12 -19 -3 -8 6 -11 15 -8 20 6 10 18
12 27 3z m-158 -135 c11 -17 -1 -21 -15 -4 -8 9 -8 15 -2 15 6 0 14 -5 17 -11z
m-315 -308 c-15 -29 -29 -35 -27 -12 0 11 4 18 8 15 4 -2 10 0 14 6 11 18 16
10 5 -9z m-126 -6 c-4 -8 -11 -12 -16 -9 -6 4 -5 10 3 15 19 12 19 11 13 -6z
m49 -90 c-7 -21 -12 -19 -10 4 0 11 5 18 9 15 4 -3 5 -11 1 -19z m-3193 5 c0
-5 -2 -10 -4 -10 -3 0 -8 5 -11 10 -3 6 -1 10 4 10 6 0 11 -4 11 -10z m3141
-50 c-13 -11 -18 -20 -12 -20 6 0 11 -4 11 -9 0 -8 -10 -8 -40 -1 -6 1 53 50
60 50 3 -1 -6 -10 -19 -20z m-3157 -32 c-4 -6 -10 -5 -15 3 -14 22 -10 33 6
19 8 -7 12 -17 9 -22z m2990 -22 c-3 -9 -10 -16 -15 -16 -5 0 -4 9 3 20 14 22
21 20 12 -4z m-80 -28 c-5 -7 -2 -9 8 -6 8 4 15 1 15 -7 0 -8 -7 -11 -15 -7
-11 4 -13 1 -7 -8 5 -8 4 -11 -3 -7 -5 4 -9 15 -7 25 5 23 4 22 11 22 3 0 2
-5 -2 -12z m-9 -56 c-3 -3 -11 0 -18 7 -9 10 -8 11 6 5 10 -3 15 -9 12 -12z
m-85 -38 c0 -8 -19 -13 -24 -6 -3 5 1 9 9 9 8 0 15 -2 15 -3z m-30 -32 c0 -5
-7 -17 -15 -28 -14 -18 -14 -17 -4 9 12 27 19 34 19 19z m-35 -12 c3 -5 1 -10
-4 -10 -6 0 -11 5 -11 10 0 6 2 10 4 10 3 0 8 -4 11 -10z m53 -35 c-3 -3 -9 2
-12 12 -6 14 -5 15 5 6 7 -7 10 -15 7 -18z m-68 1 c0 -3 -4 -8 -10 -11 -5 -3
-10 -1 -10 4 0 6 5 11 10 11 6 0 10 -2 10 -4z m-180 -106 c0 -5 -5 -10 -11
-10 -5 0 -7 5 -4 10 3 6 8 10 11 10 2 0 4 -4 4 -10z m37 -10 c-1 -11 -5 -20
-9 -20 -3 0 -6 9 -5 20 1 11 5 20 9 20 3 0 6 -9 5 -20z m-11 -47 c-2 -9 -9
-19 -17 -21 -11 -3 -11 -1 1 7 8 6 11 11 7 11 -5 0 -5 5 -2 10 9 15 14 12 11
-7z m-26 3 c0 -3 -4 -8 -10 -11 -5 -3 -10 -1 -10 4 0 6 5 11 10 11 6 0 10 -2
10 -4z m-96 -44 c3 -5 -1 -9 -9 -9 -8 0 -12 4 -9 9 3 4 7 8 9 8 2 0 6 -4 9 -8z
m-49 -21 c3 -5 2 -12 -3 -15 -5 -3 -9 1 -9 9 0 17 3 19 12 6z m50 -19 c-3 -3
-11 0 -18 7 -9 10 -8 11 6 5 10 -3 15 -9 12 -12z m-66 -19 c-3 -20 2 -26 11
-13 7 10 10 11 10 2 0 -7 -7 -15 -15 -18 -8 -4 -12 -11 -8 -17 3 -5 2 -7 -4
-4 -8 5 -10 36 -4 55 2 6 11 1 10 -5z m-19 -63 c0 -5 -4 -10 -10 -10 -5 0 -10
5 -10 10 0 6 5 10 10 10 6 0 10 -4 10 -10z m-38 -7 c-6 -2 -9 -10 -6 -15 4 -7
2 -8 -5 -4 -13 9 -5 26 12 25 9 0 8 -2 -1 -6z m-32 -33 c-8 -5 -19 -10 -25
-10 -5 0 -3 5 5 10 8 5 20 10 25 10 6 0 3 -5 -5 -10z m-65 -20 c3 -6 -1 -7 -9
-4 -18 7 -21 14 -7 14 6 0 13 -4 16 -10z m-13 -21 c2 -2 1 -3 -1 -2 -2 2 -9
-2 -16 -7 -8 -7 -12 -5 -12 4 0 12 22 16 29 5z m48 1 c0 -5 -7 -13 -16 -18
-14 -8 -14 -10 0 -25 18 -17 20 -27 8 -27 -5 0 -14 11 -20 25 -10 21 -9 27 3
31 8 4 12 10 9 15 -3 5 0 9 5 9 6 0 11 -4 11 -10z m-116 -38 c3 -5 -1 -9 -9
-9 -8 0 -12 4 -9 9 3 4 7 8 9 8 2 0 6 -4 9 -8z m36 -52 c0 -6 -9 -2 -20 7 -11
10 -20 19 -20 21 0 1 9 -2 20 -8 11 -6 20 -15 20 -20z m96 -10 c0 -11 -3 -20
-6 -20 -3 0 -18 -11 -33 -25 -15 -14 -27 -23 -27 -19 0 4 -8 0 -18 -9 -10 -10
-22 -14 -25 -11 -4 4 8 15 26 24 17 10 32 23 32 29 0 9 27 36 50 51 1 0 1 -9
1 -20z m-266 -54 c0 -2 -8 -10 -17 -17 -16 -13 -17 -12 -4 4 13 16 21 21 21
13z m46 -8 c4 -7 4 -10 -1 -6 -4 4 -13 0 -20 -9 -9 -13 -14 -13 -20 -3 -5 8
-4 11 2 7 6 -4 13 0 17 8 7 18 13 19 22 3z m-92 -36 c3 -5 -1 -9 -9 -9 -8 0
-12 4 -9 9 3 4 7 8 9 8 2 0 6 -4 9 -8z m71 -12 c3 -5 1 -10 -4 -10 -6 0 -11 5
-11 10 0 6 2 10 4 10 3 0 8 -4 11 -10z m-60 -20 c3 -6 -1 -7 -9 -4 -18 7 -21
14 -7 14 6 0 13 -4 16 -10z m-25 -10 c8 -5 11 -10 5 -10 -5 0 -17 5 -25 10 -8
5 -10 10 -5 10 6 0 17 -5 25 -10z m144 -1 c10 16 26 4 20 -14 -4 -8 -10 -12
-15 -9 -10 6 -41 -9 -40 -19 3 -20 0 -30 -6 -24 -10 11 -13 58 -2 52 5 -4 12
1 15 10 5 12 9 13 14 5 6 -9 9 -9 14 -1z m-160 -39 c-6 -6 -15 -5 -24 1 -12 9
-12 10 4 5 14 -5 17 -3 12 11 -6 15 -5 16 5 6 8 -8 10 -16 3 -23z m-71 -27
c-7 -17 -20 -17 -20 0 0 8 6 14 13 14 7 0 10 -6 7 -14z m-43 -32 c0 -6 -4 -12
-8 -15 -5 -3 -9 1 -9 9 0 8 4 15 9 15 4 0 8 -4 8 -9z m-96 -96 c3 -8 1 -15 -4
-15 -6 0 -10 7 -10 15 0 8 2 15 4 15 2 0 6 -7 10 -15z"/>
<path d="M247 3730 c7 -8 20 -15 29 -16 9 -1 13 1 9 4 -4 4 -10 7 -13 7 -4 0
-14 4 -22 9 -12 7 -13 6 -3 -4z"/>
<path d="M2786 2778 c3 -5 9 -7 12 -4 3 3 11 1 19 -5 7 -6 13 -8 13 -4 0 4 6
2 14 -4 8 -7 17 -8 20 -3 3 6 -1 15 -8 21 -10 8 -16 9 -21 1 -3 -6 -12 -7 -18
-3 -18 11 -38 12 -31 1z"/>
<path d="M3071 2694 c6 -7 16 -11 21 -8 11 7 3 17 -18 20 -12 2 -13 -1 -3 -12z"/>
<path d="M3265 2630 c3 -8 17 -23 31 -34 21 -14 28 -16 37 -6 9 10 9 11 -1 5
-9 -4 -25 3 -43 21 -17 16 -28 22 -24 14z"/>
<path d="M3420 2575 c8 -11 22 -24 30 -30 17 -10 45 -17 36 -8 -3 4 -1 12 6
20 6 7 8 16 4 20 -3 3 -6 1 -6 -6 0 -7 -4 -10 -9 -6 -5 3 -13 0 -16 -6 -5 -7
-16 -2 -33 13 -21 18 -23 19 -12 3z"/>
<path d="M4140 1785 c-9 -11 -10 -19 -3 -26 8 -8 13 -7 18 2 5 8 4 10 -3 5 -7
-4 -12 -3 -12 3 0 5 8 15 18 20 9 6 12 11 6 11 -6 0 -17 -7 -24 -15z"/>
<path d="M2550 349 c0 -5 5 -7 10 -4 6 3 10 8 10 11 0 2 -4 4 -10 4 -5 0 -10
-5 -10 -11z"/>
<path d="M95 3941 c-3 -5 -2 -12 3 -15 5 -3 9 1 9 9 0 17 -3 19 -12 6z"/>
<path d="M74 3868 c0 -15 4 -28 9 -28 5 0 6 7 3 16 -4 9 -2 22 4 29 7 8 6 12
-3 12 -8 0 -13 -12 -13 -29z"/>
<path d="M116 3891 c-11 -17 21 -34 41 -22 16 9 15 10 -7 8 -16 -1 -24 3 -22
11 2 14 -4 16 -12 3z"/>
<path d="M210 3890 c0 -5 5 -10 11 -10 5 0 7 5 4 10 -3 6 -8 10 -11 10 -2 0
-4 -4 -4 -10z"/>
<path d="M11 3877 c-8 -10 -7 -14 2 -14 8 0 14 6 14 14 0 7 -1 13 -2 13 -2 0
-8 -6 -14 -13z"/>
<path d="M110 3840 c-8 -5 -10 -10 -5 -10 6 0 17 5 25 10 8 5 11 10 5 10 -5 0
-17 -5 -25 -10z"/>
<path d="M238 3843 c7 -3 16 -2 19 1 4 3 -2 6 -13 5 -11 0 -14 -3 -6 -6z"/>
<path d="M286 3835 c-16 -12 -17 -15 -4 -15 9 0 18 7 22 15 7 18 6 18 -18 0z"/>
<path d="M38 3833 c7 -3 16 -2 19 1 4 3 -2 6 -13 5 -11 0 -14 -3 -6 -6z"/>
<path d="M150 3830 c0 -5 7 -7 15 -4 8 4 15 8 15 10 0 2 -7 4 -15 4 -8 0 -15
-4 -15 -10z"/>
<path d="M206 3831 c-3 -4 4 -17 15 -27 18 -16 19 -16 13 -1 -3 9 -10 17 -16
17 -5 0 -6 5 -3 10 3 6 4 10 1 10 -3 0 -7 -4 -10 -9z"/>
<path d="M60 3820 c-8 -5 -10 -10 -5 -10 6 0 17 5 25 10 8 5 11 10 5 10 -5 0
-17 -5 -25 -10z"/>
<path d="M317 3823 c-10 -9 -9 -23 1 -23 5 0 9 7 9 15 0 17 -1 18 -10 8z"/>
<path d="M134 3805 c25 -19 31 -19 46 0 8 9 8 15 2 15 -6 0 -12 -6 -15 -12 -4
-10 -7 -10 -18 0 -7 6 -18 12 -23 12 -6 0 -2 -7 8 -15z"/>
<path d="M2559 2983 c-13 -16 -12 -17 4 -4 16 13 21 21 13 21 -2 0 -10 -8 -17
-17z"/>
<path d="M2795 2991 c-3 -5 -2 -12 3 -15 5 -3 9 1 9 9 0 17 -3 19 -12 6z"/>
<path d="M2590 2971 c0 -6 4 -13 10 -16 6 -3 7 1 4 9 -7 18 -14 21 -14 7z"/>
<path d="M2644 2965 c-4 -8 -11 -12 -18 -8 -6 3 -7 2 -3 -2 14 -16 33 -13 33
6 0 23 -5 24 -12 4z"/>
<path d="M2675 2971 c-3 -5 -2 -12 3 -15 5 -3 9 1 9 9 0 17 -3 19 -12 6z"/>
<path d="M2946 2972 c-3 -5 1 -9 9 -9 8 0 12 4 9 9 -3 4 -7 8 -9 8 -2 0 -6 -4
-9 -8z"/>
<path d="M2570 2950 c0 -11 4 -20 9 -20 5 0 7 9 4 20 -3 11 -7 20 -9 20 -2 0
-4 -9 -4 -20z"/>
<path d="M2670 2930 c0 -5 5 -10 10 -10 6 0 10 5 10 10 0 6 -4 10 -10 10 -5 0
-10 -4 -10 -10z"/>
<path d="M2718 2926 c-19 -14 -23 -26 -10 -26 4 0 13 9 20 20 14 23 13 24 -10
6z"/>
<path d="M2814 2908 c-4 -5 -3 -12 0 -15 3 -4 6 -1 6 6 0 7 5 9 10 6 6 -4 8
-10 6 -14 -3 -4 1 -8 9 -8 10 0 12 4 5 12 -5 7 -8 14 -5 17 3 2 -2 5 -10 5 -9
0 -18 -4 -21 -9z"/>
<path d="M2880 2890 c-9 -6 -10 -10 -3 -10 6 0 15 5 18 10 8 12 4 12 -15 0z"/>
<path d="M2915 2891 c-3 -5 -2 -12 3 -15 5 -3 9 1 9 9 0 17 -3 19 -12 6z"/>
<path d="M2973 2885 c0 -8 4 -12 9 -9 5 3 6 10 3 15 -9 13 -12 11 -12 -6z"/>
<path d="M2939 2863 c-13 -16 -12 -17 4 -4 16 13 21 21 13 21 -2 0 -10 -8 -17
-17z"/>
<path d="M2888 2863 c6 -2 9 -10 6 -15 -4 -7 -2 -8 5 -4 13 9 5 26 -12 25 -9
0 -8 -2 1 -6z"/>
<path d="M2999 2868 c-6 -20 -6 -39 0 -42 4 -3 7 6 7 20 0 20 -4 32 -7 22z"/>
<path d="M2960 2850 c-9 -6 -10 -10 -3 -10 6 0 15 5 18 10 8 12 4 12 -15 0z"/>
<path d="M2915 2830 c3 -5 11 -10 16 -10 6 0 7 5 4 10 -3 6 -11 10 -16 10 -6
0 -7 -4 -4 -10z"/>
<path d="M3076 2832 c-3 -5 1 -9 9 -9 8 0 12 4 9 9 -3 4 -7 8 -9 8 -2 0 -6 -4
-9 -8z"/>
<path d="M2950 2810 c0 -5 5 -10 10 -10 6 0 10 5 10 10 0 6 -4 10 -10 10 -5 0
-10 -4 -10 -10z"/>
<path d="M3026 2795 c-11 -8 -16 -15 -10 -15 5 0 18 7 28 15 11 8 16 15 10 15
-5 0 -18 -7 -28 -15z"/>
<path d="M3073 2795 c0 -7 6 -12 13 -12 7 0 15 5 17 12 3 6 -3 11 -12 11 -10
0 -18 -5 -18 -11z"/>
<path d="M3309 2793 c-13 -16 -12 -17 4 -4 9 7 17 15 17 17 0 8 -8 3 -21 -13z"/>
<path d="M3117 2783 c-10 -9 -9 -23 1 -23 5 0 9 7 9 15 0 17 -1 18 -10 8z"/>
<path d="M3156 2765 c-10 -7 -16 -18 -15 -23 2 -6 12 1 22 14 21 27 19 29 -7
9z"/>
<path d="M3215 2760 c-4 -6 -11 -8 -16 -5 -5 3 -6 -2 -2 -11 5 -13 3 -15 -7
-9 -9 5 -11 4 -6 -3 10 -16 11 -16 30 13 9 14 14 25 12 25 -3 0 -8 -5 -11 -10z"/>
<path d="M3269 2753 c-13 -16 -12 -17 4 -4 16 13 21 21 13 21 -2 0 -10 -8 -17
-17z"/>
<path d="M3306 2752 c-3 -5 1 -9 9 -9 8 0 12 4 9 9 -3 4 -7 8 -9 8 -2 0 -6 -4
-9 -8z"/>
<path d="M3400 2730 c8 -5 20 -10 25 -10 6 0 3 5 -5 10 -8 5 -19 10 -25 10 -5
0 -3 -5 5 -10z"/>
<path d="M3470 2733 c0 -6 8 -17 18 -24 16 -13 16 -13 2 6 -8 11 -16 22 -17
24 -2 2 -3 0 -3 -6z"/>
<path d="M3210 2715 c0 -7 30 -13 34 -7 3 4 -4 9 -15 9 -10 1 -19 0 -19 -2z"/>
<path d="M3315 2710 c3 -5 8 -10 11 -10 2 0 4 5 4 10 0 6 -5 10 -11 10 -5 0
-7 -4 -4 -10z"/>
<path d="M3396 2697 c3 -10 9 -15 12 -12 3 3 0 11 -7 18 -10 9 -11 8 -5 -6z"/>
<path d="M3335 2689 c-5 -8 -5 -11 0 -7 4 4 14 0 21 -10 9 -13 16 -14 24 -6 9
9 9 14 -1 19 -8 5 -10 4 -5 -3 11 -18 -5 -14 -19 5 -10 13 -13 14 -20 2z"/>
<path d="M3433 2685 c0 -8 4 -12 9 -9 5 3 6 10 3 15 -9 13 -12 11 -12 -6z"/>
<path d="M3534 2679 c-3 -6 -2 -15 3 -20 5 -5 9 -1 9 11 0 23 -2 24 -12 9z"/>
<path d="M3482 2668 c-15 -15 -15 -28 0 -28 6 0 8 3 5 7 -4 3 -2 12 4 20 14
16 7 17 -9 1z"/>
<path d="M3411 2663 c-1 -17 16 -25 25 -12 4 7 3 9 -4 5 -5 -3 -13 0 -15 6 -4
9 -6 10 -6 1z"/>
<path d="M3326 2644 c-11 -7 -18 -16 -15 -18 2 -2 13 2 23 10 11 7 18 16 15
18 -2 2 -13 -2 -23 -10z"/>
<path d="M3507 2623 c3 -7 8 -13 12 -13 4 0 8 6 8 13 0 8 -6 14 -13 14 -7 0
-10 -6 -7 -14z"/>
<path d="M3546 2625 c4 -8 11 -15 16 -15 6 0 5 6 -2 15 -7 8 -14 15 -16 15 -2
0 -1 -7 2 -15z"/>
<path d="M3597 2603 c-10 -9 -9 -23 1 -23 5 0 9 7 9 15 0 17 -1 18 -10 8z"/>
<path d="M3628 2603 c7 -3 16 -2 19 1 4 3 -2 6 -13 5 -11 0 -14 -3 -6 -6z"/>
<path d="M3616 2571 c-3 -5 1 -14 10 -21 12 -11 17 -11 27 0 9 10 9 11 0 6 -7
-4 -18 -4 -25 0 -8 5 -6 10 8 15 16 6 16 8 2 8 -9 1 -19 -3 -22 -8z"/>
<path d="M3668 2573 c7 -3 16 -2 19 1 4 3 -2 6 -13 5 -11 0 -14 -3 -6 -6z"/>
<path d="M3700 2574 c0 -1 6 -7 14 -13 10 -9 15 -8 19 2 3 8 -3 13 -14 13 -11
0 -19 -1 -19 -2z"/>
<path d="M24 2548 c-4 -7 -3 -8 4 -4 7 4 12 3 12 -2 0 -6 -7 -12 -15 -16 -10
-3 -14 -14 -11 -30 2 -14 1 -27 -2 -29 -4 -2 -2 -2 5 -1 15 4 36 -22 28 -36
-3 -5 -2 -10 2 -10 5 0 14 9 20 19 11 17 8 23 -19 46 -17 14 -28 29 -24 32 3
3 16 -2 28 -13 22 -19 22 -19 8 0 -8 11 -14 27 -12 38 4 20 -13 25 -24 6z m31
-78 c10 -11 14 -20 8 -20 -5 0 -18 9 -28 20 -10 11 -14 20 -8 20 5 0 18 -9 28
-20z"/>
<path d="M3850 2551 c0 -6 4 -13 10 -16 6 -3 7 1 4 9 -7 18 -14 21 -14 7z"/>
<path d="M3735 2540 c-3 -6 1 -7 9 -4 18 7 21 14 7 14 -6 0 -13 -4 -16 -10z"/>
<path d="M3844 2512 c4 -3 14 -7 22 -8 9 -1 13 0 10 4 -4 3 -14 7 -22 8 -9 1
-13 0 -10 -4z"/>
<path d="M3954 2498 l-19 -23 23 19 c21 18 27 26 19 26 -2 0 -12 -10 -23 -22z"/>
<path d="M3993 2495 c0 -8 4 -12 9 -9 5 3 6 10 3 15 -9 13 -12 11 -12 -6z"/>
<path d="M3883 2485 c-3 -9 -3 -18 -1 -21 3 -3 8 4 11 16 6 23 -1 27 -10 5z"/>
<path d="M3828 2481 c15 -9 15 -17 1 -42 -6 -12 0 -22 24 -40 29 -21 69 -37
52 -21 -4 4 -12 7 -18 7 -7 0 -12 5 -12 10 -1 6 -8 24 -17 40 -8 17 -13 36
-11 43 3 7 -3 12 -14 12 -14 0 -15 -2 -5 -9z m32 -65 c14 -18 14 -18 -7 -6
-12 8 -19 18 -16 23 3 4 6 7 7 5 1 -2 8 -12 16 -22z"/>
<path d="M4035 2480 c-4 -6 -10 -8 -14 -6 -4 3 -8 -1 -8 -9 0 -10 4 -12 12 -5
7 5 14 8 17 5 2 -3 5 2 5 10 0 18 -3 19 -12 5z"/>
<path d="M18 2438 c-7 -18 1 -38 15 -38 8 0 8 3 0 11 -6 6 -9 18 -6 25 3 8 3
14 0 14 -3 0 -7 -6 -9 -12z"/>
<path d="M3981 2447 c-1 -5 4 -17 9 -28 11 -20 30 -26 30 -8 0 5 -5 7 -12 3
-8 -5 -9 -2 -5 10 4 9 3 15 -2 11 -5 -3 -12 1 -14 7 -3 7 -6 9 -6 5z"/>
<path d="M4045 2430 c-16 -17 -16 -20 -3 -15 9 4 19 13 22 21 7 19 2 18 -19
-6z"/>
<path d="M4116 2428 c3 -5 10 -6 15 -3 13 9 11 12 -6 12 -8 0 -12 -4 -9 -9z"/>
<path d="M4155 2430 c-3 -5 -1 -10 4 -10 6 0 11 5 11 10 0 6 -2 10 -4 10 -3 0
-8 -4 -11 -10z"/>
<path d="M4070 2410 c0 -5 5 -10 10 -10 6 0 10 5 10 10 0 6 -4 10 -10 10 -5 0
-10 -4 -10 -10z"/>
<path d="M4253 2405 c0 -8 4 -12 9 -9 5 3 6 10 3 15 -9 13 -12 11 -12 -6z"/>
<path d="M58 2403 c22 -9 13 -25 -10 -18 -17 5 -19 4 -9 -4 13 -8 13 -12 0
-27 -9 -11 -9 -15 -1 -10 6 4 12 3 12 -3 0 -5 -5 -12 -10 -14 -6 -3 -5 -4 2
-3 7 2 13 9 13 17 0 8 4 20 9 27 6 11 11 11 24 0 15 -12 16 -11 3 5 -7 9 -10
17 -5 17 5 0 2 5 -6 10 -8 5 -19 9 -25 9 -5 0 -4 -3 3 -6z"/>
<path d="M4100 2390 c0 -6 7 -10 15 -10 8 0 15 2 15 4 0 2 -7 6 -15 10 -8 3
-15 1 -15 -4z"/>
<path d="M4180 2390 c8 -5 20 -10 25 -10 6 0 3 5 -5 10 -8 5 -19 10 -25 10 -5
0 -3 -5 5 -10z"/>
<path d="M5 2369 c-4 -6 -4 -13 -1 -16 3 -4 6 -1 6 6 0 7 5 9 12 5 7 -4 8 -3
4 4 -9 15 -13 15 -21 1z"/>
<path d="M4299 2378 c-5 -16 -4 -46 2 -42 4 2 7 13 6 24 -1 17 -5 26 -8 18z"/>
<path d="M4172 2363 c-6 -2 -10 -9 -6 -14 8 -14 21 -11 21 6 0 8 -1 15 -1 14
-1 0 -7 -3 -14 -6z"/>
<path d="M4350 2350 c0 -5 5 -10 11 -10 5 0 7 5 4 10 -3 6 -8 10 -11 10 -2 0
-4 -4 -4 -10z"/>
<path d="M4275 2310 c26 -11 35 -12 35 -2 0 4 -12 8 -27 9 -24 1 -25 1 -8 -7z"/>
<path d="M4320 2316 c0 -2 8 -10 18 -17 15 -13 16 -12 3 4 -13 16 -21 21 -21
13z"/>
<path d="M4280 2281 c0 -6 4 -13 10 -16 6 -3 7 1 4 9 -7 18 -14 21 -14 7z"/>
<path d="M10 2270 c0 -5 5 -10 10 -10 6 0 10 5 10 10 0 6 -4 10 -10 10 -5 0
-10 -4 -10 -10z"/>
<path d="M47 2269 c7 -7 15 -10 18 -7 3 3 -2 9 -12 12 -14 6 -15 5 -6 -5z"/>
<path d="M4315 2269 c-4 -6 -5 -12 -2 -15 2 -3 7 2 10 11 7 17 1 20 -8 4z"/>
<path d="M76 2249 c-16 -13 -26 -16 -26 -8 0 7 -3 10 -6 7 -3 -4 0 -16 6 -28
9 -17 14 -19 25 -10 8 7 19 9 24 6 5 -4 12 -3 15 2 7 12 -26 11 -41 -1 -16
-12 -17 5 -2 20 6 6 17 9 24 7 6 -3 12 2 12 11 0 19 1 19 -31 -6z"/>
<path d="M4359 2268 c-6 -20 -6 -39 0 -42 4 -3 7 6 7 20 0 20 -4 32 -7 22z"/>
<path d="M83 2194 c3 -4 2 -16 -4 -28 -10 -20 -10 -20 5 -2 19 24 20 36 4 36
-6 0 -8 -3 -5 -6z"/>
<path d="M4390 2189 c0 -5 5 -7 10 -4 6 3 10 8 10 11 0 2 -4 4 -10 4 -5 0 -10
-5 -10 -11z"/>
<path d="M60 2181 c0 -7 -5 -9 -12 -5 -7 5 -8 3 -3 -5 5 -9 10 -10 18 -2 6 6
8 14 4 18 -4 3 -7 1 -7 -6z"/>
<path d="M37 2149 c7 -7 15 -10 18 -7 3 3 -2 9 -12 12 -14 6 -15 5 -6 -5z"/>
<path d="M30 2122 c9 -19 30 -23 30 -5 0 4 -3 3 -7 0 -3 -4 -12 1 -20 11 -13
15 -13 15 -3 -6z"/>
<path d="M70 2130 c0 -5 5 -10 10 -10 6 0 10 5 10 10 0 6 -4 10 -10 10 -5 0
-10 -4 -10 -10z"/>
<path d="M0 2116 c0 -2 8 -10 18 -17 15 -13 16 -12 3 4 -13 16 -21 21 -21 13z"/>
<path d="M55 2091 c-6 -11 13 -26 22 -17 4 3 1 6 -6 6 -7 0 -9 5 -6 10 3 6 4
10 1 10 -3 0 -7 -4 -11 -9z"/>
<path d="M4469 2073 c-13 -16 -12 -17 4 -4 9 7 17 15 17 17 0 8 -8 3 -21 -13z"/>
<path d="M32 2058 c-9 -12 -8 -14 8 -13 11 1 23 5 27 10 5 4 3 5 -4 2 -6 -4
-13 -2 -15 4 -2 7 -8 6 -16 -3z"/>
<path d="M77 2043 c-4 -3 -7 -11 -7 -17 0 -6 5 -5 12 2 6 6 9 14 7 17 -3 3 -9
2 -12 -2z"/>
<path d="M4380 2030 c-8 -5 -10 -10 -5 -10 6 0 17 5 25 10 8 5 11 10 5 10 -5
0 -17 -5 -25 -10z"/>
<path d="M4436 2023 c-6 -14 -5 -15 5 -6 7 7 10 15 7 18 -3 3 -9 -2 -12 -12z"/>
<path d="M30 2004 c6 -6 7 -13 4 -17 -3 -3 1 -4 10 -3 8 1 19 6 23 11 5 4 2 5
-6 0 -10 -6 -13 -4 -9 6 4 10 -1 15 -13 15 -12 0 -15 -4 -9 -12z"/>
<path d="M4396 2012 c-3 -5 1 -9 9 -9 8 0 12 4 9 9 -3 4 -7 8 -9 8 -2 0 -6 -4
-9 -8z"/>
<path d="M87 1989 c7 -7 15 -10 18 -7 3 3 -2 9 -12 12 -14 6 -15 5 -6 -5z"/>
<path d="M4375 1980 c-3 -6 1 -7 9 -4 18 7 21 14 7 14 -6 0 -13 -4 -16 -10z"/>
<path d="M117 1973 c-4 -3 -7 -11 -7 -17 0 -6 5 -5 12 2 6 6 9 14 7 17 -3 3
-9 2 -12 -2z"/>
<path d="M4346 1951 c-3 -5 0 -11 7 -14 8 -3 14 1 14 9 0 16 -13 19 -21 5z"/>
<path d="M44 1908 c-13 -16 -14 -19 -2 -10 13 10 17 10 21 0 3 -7 4 -3 4 10
-1 12 -2 22 -3 22 0 0 -9 -10 -20 -22z"/>
<path d="M4337 1906 c-4 -10 -1 -13 8 -9 8 3 12 9 9 14 -7 12 -11 11 -17 -5z"/>
<path d="M4203 1904 c3 -4 -3 -20 -15 -36 -21 -30 -21 -30 0 -17 11 7 19 16
16 20 -2 4 3 12 12 17 15 8 14 10 -2 16 -10 4 -15 4 -11 0z"/>
<path d="M121 1883 c-1 -6 -4 -20 -7 -30 -5 -17 -5 -17 6 0 6 10 9 23 6 30 -3
9 -5 9 -5 0z"/>
<path d="M56 1863 c-6 -14 -5 -15 5 -6 7 7 10 15 7 18 -3 3 -9 -2 -12 -12z"/>
<path d="M80 1870 c0 -5 5 -10 11 -10 5 0 7 5 4 10 -3 6 -8 10 -11 10 -2 0 -4
-4 -4 -10z"/>
<path d="M4316 1864 c-8 -20 -8 -24 2 -24 4 0 8 9 9 20 2 24 -3 26 -11 4z"/>
<path d="M4395 1870 c-3 -5 -1 -10 4 -10 6 0 11 5 11 10 0 6 -2 10 -4 10 -3 0
-8 -4 -11 -10z"/>
<path d="M4345 1850 c-3 -6 1 -7 9 -4 18 7 21 14 7 14 -6 0 -13 -4 -16 -10z"/>
<path d="M155 1840 c3 -5 8 -10 11 -10 2 0 4 5 4 10 0 6 -5 10 -11 10 -5 0 -7
-4 -4 -10z"/>
<path d="M68 1833 c9 -3 10 -9 3 -17 -8 -9 -6 -12 9 -11 11 1 23 5 27 10 5 4
2 4 -6 0 -10 -6 -13 -4 -9 6 4 10 -1 15 -16 16 -11 0 -15 -1 -8 -4z"/>
<path d="M4273 1825 c0 -8 4 -12 9 -9 5 3 6 10 3 15 -9 13 -12 11 -12 -6z"/>
<path d="M110 1790 c0 -6 7 -13 15 -16 12 -5 13 -10 4 -20 -6 -8 -9 -14 -6
-14 2 0 9 6 15 13 9 10 6 17 -8 30 -11 9 -20 12 -20 7z"/>
<path d="M157 1778 c18 -13 33 -29 33 -37 0 -11 -3 -11 -15 -1 -12 10 -19 10
-27 2 -15 -15 -19 -42 -7 -42 5 0 9 6 9 13 0 8 4 7 10 -3 5 -8 10 -10 10 -4 0
5 -5 15 -12 22 -17 17 2 15 22 -3 15 -14 17 -12 17 19 0 22 -5 32 -12 30 -7
-3 -18 2 -25 11 -7 8 -17 15 -24 15 -6 0 4 -10 21 -22z"/>
<path d="M4250 1792 c0 -5 7 -9 15 -9 8 0 12 4 9 9 -3 4 -9 8 -15 8 -5 0 -9
-4 -9 -8z"/>
<path d="M13 1765 c0 -8 4 -12 9 -9 5 3 6 10 3 15 -9 13 -12 11 -12 -6z"/>
<path d="M75 1772 c3 -3 -1 -12 -7 -21 -7 -9 -9 -13 -4 -9 5 4 16 3 26 -2 12
-6 17 -5 17 5 0 8 -7 11 -16 7 -13 -5 -14 -3 -4 9 10 13 10 16 -2 16 -8 0 -13
-3 -10 -5z"/>
<path d="M4250 1766 c0 -2 8 -10 18 -17 15 -13 16 -12 3 4 -13 16 -21 21 -21
13z"/>
<path d="M3994 1729 c-8 -14 14 -19 25 -6 8 10 7 14 -5 14 -8 0 -17 -4 -20 -8z"/>
<path d="M4174 1728 c-4 -7 -3 -8 4 -4 11 7 17 -6 13 -27 -1 -5 3 -6 9 -2 7 4
7 12 0 26 -12 22 -16 23 -26 7z"/>
<path d="M20 1710 c-9 -6 -10 -10 -3 -10 6 0 15 5 18 10 8 12 4 12 -15 0z"/>
<path d="M4147 1696 c-4 -10 -1 -13 8 -9 8 3 12 9 9 14 -7 12 -11 11 -17 -5z"/>
<path d="M175 1690 c-3 -5 -11 -8 -18 -6 -7 1 -9 1 -4 -1 4 -3 4 -9 1 -15 -5
-8 29 10 55 29 2 2 -3 3 -12 3 -9 0 -18 -4 -22 -10z"/>
<path d="M3947 1686 c-10 -8 -14 -16 -10 -19 5 -3 14 3 21 14 14 22 13 23 -11
5z"/>
<path d="M4094 1689 c-3 -6 -3 -13 0 -16 3 -4 6 -1 6 5 0 6 7 9 15 6 8 -4 15
-4 15 -1 0 11 -30 16 -36 6z"/>
<path d="M93 1677 c0 -7 11 -13 23 -13 20 0 25 11 6 11 -4 0 -12 3 -18 7 -6 4
-11 1 -11 -5z"/>
<path d="M4073 1662 c0 -12 5 -22 9 -22 11 0 10 12 -2 30 -7 12 -9 10 -7 -8z"/>
<path d="M114 1626 c-10 -22 -10 -24 6 -14 10 7 16 18 13 25 -7 17 -6 17 -19
-11z"/>
<path d="M170 1620 c27 -38 37 -43 44 -25 7 18 -3 45 -16 45 -5 0 -7 -4 -3 -9
3 -5 1 -12 -5 -16 -5 -3 -10 0 -10 8 0 8 -7 18 -16 21 -11 4 -10 -1 6 -24z
m40 -10 c0 -5 -5 -10 -11 -10 -5 0 -7 5 -4 10 3 6 8 10 11 10 2 0 4 -4 4 -10z"/>
<path d="M4028 1627 c-3 -19 -2 -25 4 -19 6 6 8 18 6 28 -3 14 -5 12 -10 -9z"/>
<path d="M4050 1631 c0 -6 4 -13 10 -16 6 -3 7 1 4 9 -7 18 -14 21 -14 7z"/>
<path d="M150 1615 c0 -5 5 -17 10 -25 5 -8 10 -10 10 -5 0 6 -5 17 -10 25 -5
8 -10 11 -10 5z"/>
<path d="M3992 1615 c4 -4 0 -13 -9 -20 -13 -10 -14 -13 -2 -20 8 -5 11 -5 7
0 -4 4 0 13 9 20 13 10 14 13 2 20 -8 5 -11 5 -7 0z"/>
<path d="M75 1601 c-3 -5 -2 -12 3 -15 5 -3 9 1 9 9 0 17 -3 19 -12 6z"/>
<path d="M4067 1589 c7 -7 15 -10 18 -7 3 3 -2 9 -12 12 -14 6 -15 5 -6 -5z"/>
<path d="M174 1565 c-4 -8 -11 -12 -17 -8 -6 4 -7 1 -2 -7 6 -10 11 -9 21 4
12 17 13 16 23 -3 15 -27 14 -36 -3 -22 -16 13 -26 3 -22 -22 4 -28 14 -30 30
-5 17 26 12 64 -10 72 -8 3 -17 -1 -20 -9z m20 -65 c-6 -6 -10 -2 -11 12 -2
16 1 18 10 9 7 -7 8 -14 1 -21z"/>
<path d="M3914 1549 c-3 -6 -1 -16 5 -22 9 -9 10 -7 5 7 -6 15 -4 17 6 11 9
-5 11 -4 6 3 -9 15 -13 15 -22 1z"/>
<path d="M111 1537 c-8 -10 -7 -14 4 -14 8 0 11 5 8 10 -4 6 1 8 11 4 10 -4
15 -3 11 3 -8 14 -20 12 -34 -3z"/>
<path d="M3762 1527 c-12 -13 -19 -27 -15 -30 6 -6 -11 -11 -30 -8 -4 1 -10
-6 -13 -14 -3 -8 -11 -12 -17 -8 -5 3 -7 1 -4 -4 4 -6 0 -16 -8 -23 -7 -6 -12
-17 -9 -24 6 -15 -28 -18 -37 -3 -4 5 -10 0 -14 -12 -3 -11 -12 -21 -18 -21
-7 0 -6 -4 3 -10 13 -8 13 -10 1 -10 -11 0 -9 -4 5 -15 19 -15 19 -15 -1 -9
-17 4 -16 3 3 -8 12 -8 19 -17 16 -21 -4 -4 -2 -7 5 -7 7 0 10 7 7 18 -7 21
20 27 42 9 8 -6 12 -6 12 2 0 6 -6 11 -12 11 -9 0 -8 3 2 10 12 7 12 12 2 22
-6 6 -12 17 -12 23 1 5 9 0 18 -11 16 -19 21 -20 43 -8 13 7 20 14 14 14 -5 0
1 7 15 15 14 8 19 14 13 15 -7 0 -22 -9 -33 -20 -27 -27 -36 -25 -36 9 0 17 3
28 8 25 5 -3 6 -10 3 -15 -4 -5 -1 -9 4 -9 6 0 11 7 11 15 0 8 -5 15 -12 15
-16 0 -1 13 18 16 11 2 13 -3 8 -19 -6 -20 -5 -20 14 3 17 21 22 22 36 11 9
-8 16 -9 16 -3 0 6 -6 12 -12 14 -9 3 -8 9 5 22 22 22 21 29 -1 49 -17 16 -20
15 -40 -6z m27 -40 c-13 -13 -32 -24 -42 -24 -22 0 -22 13 -1 21 9 4 14 9 10
13 -3 3 2 15 11 25 15 17 18 17 32 3 14 -14 13 -18 -10 -38z m-81 -34 c-8 -10
-14 -29 -13 -42 2 -22 1 -23 -11 -6 -11 15 -10 22 9 45 12 15 24 26 26 24 2
-2 -3 -12 -11 -21z m-60 -61 c10 7 14 8 10 4 -4 -5 0 -15 9 -21 15 -11 15 -13
-3 -22 -29 -14 -49 -10 -48 10 3 36 5 43 11 29 4 -10 8 -10 21 0z"/>
<path d="M3770 1515 c-7 -8 -9 -15 -5 -15 4 0 1 -8 -6 -17 -11 -16 -11 -16 1
-5 8 7 16 17 16 23 3 22 5 23 14 9 6 -9 10 -10 10 -3 0 19 -17 24 -30 8z"/>
<path d="M3623 1365 c0 -7 6 -12 14 -11 19 3 21 19 2 21 -9 2 -16 -3 -16 -10z"/>
<path d="M3999 1523 c-13 -17 -13 -17 6 -3 11 8 22 16 24 17 2 2 0 3 -6 3 -6
0 -17 -8 -24 -17z"/>
<path d="M213 1490 c-13 -15 -23 -32 -23 -37 0 -4 5 0 11 10 5 9 15 17 21 17
7 0 7 -4 -1 -14 -9 -11 -8 -15 5 -20 9 -4 19 -4 22 -1 3 3 0 5 -6 5 -7 0 -12
5 -12 11 0 5 6 7 13 3 9 -6 9 -4 -1 8 -7 8 -10 23 -6 32 9 23 2 19 -23 -14z"/>
<path d="M3863 1513 c9 -8 47 -11 47 -4 0 5 -11 9 -25 9 -14 0 -24 -2 -22 -5z"/>
<path d="M3854 1485 c-3 -8 -4 -20 -1 -27 3 -7 6 -3 6 10 1 15 5 21 13 16 7
-4 8 -3 4 4 -10 16 -15 15 -22 -3z"/>
<path d="M154 1469 c0 -10 4 -19 8 -19 10 0 10 27 0 34 -4 2 -8 -4 -8 -15z"/>
<path d="M181 1430 c6 -5 19 -6 28 -2 9 3 13 2 9 -3 -4 -4 0 -14 10 -22 16
-13 15 -14 -5 -8 -23 6 -40 -9 -23 -20 6 -4 8 -16 5 -28 -2 -12 -2 -16 1 -9 3
6 11 9 17 5 7 -4 4 5 -6 20 -9 15 -14 27 -10 27 12 0 35 -16 34 -24 -1 -3 1
-6 4 -6 3 0 8 0 11 0 4 0 1 7 -6 15 -7 8 -10 15 -6 15 4 0 -1 11 -9 24 -10 15
-25 24 -41 24 -17 0 -22 -3 -13 -8z"/>
<path d="M3770 1436 c0 -2 7 -7 16 -10 8 -3 12 -2 9 4 -6 10 -25 14 -25 6z"/>
<path d="M3830 1426 c7 -7 13 -7 20 0 6 6 3 10 -10 10 -13 0 -16 -4 -10 -10z"/>
<path d="M150 1404 c6 -6 6 -15 2 -19 -4 -5 -1 -5 6 -1 7 4 9 12 6 18 -5 8 -1
9 10 5 9 -4 15 -3 11 2 -3 6 -14 9 -25 8 -13 -1 -16 -5 -10 -13z"/>
<path d="M3835 1401 c-3 -5 -2 -12 3 -15 5 -3 9 1 9 9 0 17 -3 19 -12 6z"/>
<path d="M3770 1390 c0 -5 5 -10 10 -10 6 0 10 5 10 10 0 6 -4 10 -10 10 -5 0
-10 -4 -10 -10z"/>
<path d="M173 1373 c10 -16 -18 -23 -34 -10 -7 7 -6 3 4 -9 9 -11 15 -24 12
-27 -3 -4 -2 -5 1 -3 3 2 6 8 6 13 1 4 8 13 16 19 12 9 12 13 2 19 -8 5 -11 4
-7 -2z"/>
<path d="M3810 1369 c0 -5 5 -7 10 -4 6 3 10 8 10 11 0 2 -4 4 -10 4 -5 0 -10
-5 -10 -11z"/>
<path d="M3726 1347 c3 -10 9 -15 12 -12 3 3 0 11 -7 18 -10 9 -11 8 -5 -6z"/>
<path d="M3755 1350 c-3 -5 -1 -10 4 -10 6 0 11 5 11 10 0 6 -2 10 -4 10 -3 0
-8 -4 -11 -10z"/>
<path d="M170 1308 c0 -4 4 -8 9 -8 6 0 12 4 15 8 3 5 -1 9 -9 9 -8 0 -15 -4
-15 -9z"/>
<path d="M3650 1310 c0 -5 5 -10 10 -10 6 0 10 5 10 10 0 6 -4 10 -10 10 -5 0
-10 -4 -10 -10z"/>
<path d="M3676 1292 c-3 -5 1 -9 9 -9 8 0 12 4 9 9 -3 4 -7 8 -9 8 -2 0 -6 -4
-9 -8z"/>
<path d="M197 1277 c-3 -8 1 -14 8 -14 7 0 11 6 8 14 -3 7 -6 13 -8 13 -2 0
-5 -6 -8 -13z"/>
<path d="M230 1280 c0 -5 5 -10 10 -10 6 0 10 5 10 10 0 6 -4 10 -10 10 -5 0
-10 -4 -10 -10z"/>
<path d="M3726 1272 c-3 -5 1 -9 9 -9 8 0 12 4 9 9 -3 4 -7 8 -9 8 -2 0 -6 -4
-9 -8z"/>
<path d="M3615 1249 c-4 -6 -4 -13 -1 -16 3 -4 6 -1 6 6 0 7 5 9 12 5 7 -4 8
-3 4 4 -9 15 -13 15 -21 1z"/>
<path d="M3669 1247 c6 -8 7 -18 3 -22 -4 -5 -1 -5 6 -1 10 6 10 11 1 22 -6 8
-14 14 -16 14 -3 0 0 -6 6 -13z"/>
<path d="M180 1241 c0 -6 4 -13 10 -16 6 -3 7 1 4 9 -7 18 -14 21 -14 7z"/>
<path d="M3460 1230 c0 -5 5 -10 10 -10 6 0 10 5 10 10 0 6 -4 10 -10 10 -5 0
-10 -4 -10 -10z"/>
<path d="M3643 1228 c-9 -16 -16 -54 -7 -46 3 3 6 12 8 20 1 7 5 19 9 26 5 6
6 12 3 12 -3 0 -8 -6 -13 -12z"/>
<path d="M3690 1213 c0 -6 8 -17 18 -24 16 -13 16 -13 2 6 -8 11 -16 22 -17
24 -2 2 -3 0 -3 -6z"/>
<path d="M3460 1195 c-7 -9 -8 -15 -2 -15 5 0 12 7 16 15 3 8 4 15 2 15 -2 0
-9 -7 -16 -15z"/>
<path d="M196 1177 c3 -10 9 -15 12 -12 3 3 0 11 -7 18 -10 9 -11 8 -5 -6z"/>
<path d="M135 1170 c-3 -5 -1 -10 4 -10 6 0 11 5 11 10 0 6 -2 10 -4 10 -3 0
-8 -4 -11 -10z"/>
<path d="M179 1168 c-5 -18 -6 -38 -1 -34 7 8 12 36 6 36 -2 0 -4 -1 -5 -2z"/>
<path d="M3590 1152 c0 -5 7 -9 15 -9 8 0 12 4 9 9 -3 4 -9 8 -15 8 -5 0 -9
-4 -9 -8z"/>
<path d="M201 1143 c-1 -17 16 -25 25 -12 4 7 3 9 -4 5 -5 -3 -13 0 -15 6 -4
9 -6 10 -6 1z"/>
<path d="M173 1103 c0 -9 4 -10 14 -2 7 6 13 12 13 14 0 1 -6 2 -13 2 -8 0
-14 -6 -14 -14z"/>
<path d="M3540 1110 c8 -5 20 -10 25 -10 6 0 3 5 -5 10 -8 5 -19 10 -25 10 -5
0 -3 -5 5 -10z"/>
<path d="M230 1090 c8 -5 20 -10 25 -10 6 0 3 5 -5 10 -8 5 -19 10 -25 10 -5
0 -3 -5 5 -10z"/>
<path d="M3495 1091 c-3 -5 0 -13 6 -17 8 -5 9 -3 4 6 -6 10 -4 12 8 7 10 -3
17 -2 17 3 0 13 -27 13 -35 1z"/>
<path d="M3338 1058 c-25 -27 -27 -48 -3 -28 9 7 17 5 26 -7 12 -15 12 -16 -5
-10 -10 4 -25 2 -32 -4 -8 -6 -14 -10 -15 -8 -6 33 -5 41 7 46 8 3 12 9 9 14
-3 4 -14 1 -25 -8 -10 -9 -16 -21 -13 -26 3 -4 -4 -17 -16 -28 -12 -11 -21
-15 -21 -9 0 5 -8 10 -17 10 -17 -1 -17 -1 0 -14 10 -8 28 -12 40 -9 20 4 20
3 -3 -11 -14 -8 -21 -15 -15 -16 5 0 4 -5 -2 -11 -7 -7 -17 -8 -25 -3 -23 15
-38 13 -48 -6 -5 -9 -7 -20 -4 -23 8 -8 -35 -29 -46 -22 -5 3 -7 -4 -5 -15 3
-18 -5 -25 -27 -21 -7 1 -33 -41 -30 -46 1 -2 2 -8 2 -15 0 -6 -8 -4 -19 6
-19 17 -39 7 -26 -14 6 -10 52 -7 63 4 2 3 13 1 22 -4 16 -8 18 -6 15 15 -2
19 6 31 27 46 16 12 34 22 41 23 7 2 23 8 37 13 19 8 28 7 38 -6 11 -14 12
-13 2 6 -5 12 -15 25 -22 29 -7 4 -8 3 -4 -4 4 -7 3 -12 -3 -12 -5 0 -12 4
-15 9 -6 10 36 41 56 41 6 0 22 10 36 22 l23 23 21 -25 20 -25 -16 27 c-19 33
-20 38 -3 38 21 0 51 37 37 45 -7 4 -10 15 -7 24 7 27 -27 20 -55 -11z m35 -5
c-4 -10 -2 -14 5 -9 6 3 13 2 16 -3 12 -18 -16 -23 -32 -6 -13 13 -14 19 -4
22 6 3 9 10 6 15 -4 7 -2 8 4 4 6 -4 8 -14 5 -23z m-53 -66 c0 6 8 14 18 17 9
3 2 -7 -16 -24 -18 -16 -38 -30 -44 -30 -7 0 -4 6 7 13 13 10 15 16 6 21 -6 4
-8 12 -5 18 5 7 12 4 21 -7 7 -11 13 -14 13 -8z m-97 -70 c-4 -7 -8 -19 -8
-27 0 -8 -9 -15 -20 -15 -11 1 -23 -5 -28 -12 -4 -7 -14 -10 -23 -6 -11 4 -8
10 16 24 17 11 28 23 25 29 -6 10 26 31 37 23 5 -2 5 -10 1 -16z m-93 -82 c-7
-9 -15 -13 -19 -10 -3 3 1 10 9 15 21 14 24 12 10 -5z m-10 -35 c0 -3 -8 -6
-19 -6 -11 0 -17 6 -16 16 2 8 4 19 4 24 1 10 30 -24 31 -34z"/>
<path d="M3200 920 c-9 -6 -10 -10 -3 -10 6 0 15 5 18 10 8 12 4 12 -15 0z"/>
<path d="M3185 890 c-3 -6 1 -7 9 -4 18 7 21 14 7 14 -6 0 -13 -4 -16 -10z"/>
<path d="M173 1066 c-3 -6 -2 -8 2 -3 5 4 18 -1 29 -10 15 -14 18 -14 8 -2 -6
9 -10 18 -7 21 3 2 -2 5 -10 5 -9 0 -19 -5 -22 -11z"/>
<path d="M3460 1076 c0 -2 7 -9 15 -16 13 -11 14 -10 9 4 -5 14 -24 23 -24 12z"/>
<path d="M3550 1069 c0 -5 5 -7 10 -4 6 3 10 8 10 11 0 2 -4 4 -10 4 -5 0 -10
-5 -10 -11z"/>
<path d="M245 1053 c6 -4 11 -15 13 -25 2 -12 -3 -15 -20 -12 -21 4 -21 4 -3
-5 11 -4 23 -7 27 -4 13 7 2 47 -13 51 -8 2 -10 0 -4 -5z"/>
<path d="M3506 1048 c3 -5 10 -6 15 -3 13 9 11 12 -6 12 -8 0 -12 -4 -9 -9z"/>
<path d="M3476 1023 c-6 -14 -5 -15 5 -6 7 7 10 15 7 18 -3 3 -9 -2 -12 -12z"/>
<path d="M309 1013 c-7 -48 -4 -76 7 -88 9 -8 10 -15 4 -18 -6 -3 -5 -4 1 -3
7 1 13 12 14 23 1 14 -3 19 -12 16 -7 -3 -13 0 -13 6 0 6 4 11 8 11 5 0 9 7 9
15 0 8 -4 12 -9 9 -4 -3 -8 -1 -8 5 0 5 5 11 12 13 9 3 9 6 0 12 -7 4 -12 4
-13 -1z"/>
<path d="M3380 990 c-8 -5 -10 -10 -5 -10 6 0 17 5 25 10 8 5 11 10 5 10 -5 0
-17 -5 -25 -10z"/>
<path d="M111 963 c7 -12 15 -20 18 -17 3 2 -3 12 -13 22 -17 16 -18 16 -5 -5z"/>
<path d="M3395 971 c-3 -5 -2 -12 3 -15 5 -3 9 1 9 9 0 17 -3 19 -12 6z"/>
<path d="M3426 968 c3 -5 10 -6 15 -3 13 9 11 12 -6 12 -8 0 -12 -4 -9 -9z"/>
<path d="M218 958 c8 -9 12 -21 9 -25 -3 -4 6 -8 19 -8 20 0 22 2 9 11 -8 6
-11 15 -7 20 4 5 3 6 -2 2 -5 -4 -16 -2 -25 5 -14 10 -14 10 -3 -5z"/>
<path d="M3330 945 c0 -8 2 -15 4 -15 2 0 6 7 10 15 3 8 1 15 -4 15 -6 0 -10
-7 -10 -15z"/>
<path d="M3305 930 c-3 -5 -12 -7 -19 -4 -18 7 -30 -12 -15 -22 8 -4 9 -3 5 4
-4 7 -3 12 3 12 5 0 11 -7 13 -15 2 -10 7 -7 15 10 11 24 10 34 -2 15z"/>
<path d="M276 904 c-3 -8 -2 -13 3 -9 5 3 11 0 13 -6 2 -7 18 -13 36 -14 17
-1 29 2 26 7 -4 5 -13 7 -21 4 -18 -7 -45 12 -37 25 3 5 1 9 -4 9 -6 0 -13 -7
-16 -16z"/>
<path d="M3313 896 c0 -15 22 -15 34 0 4 5 4 6 -1 2 -5 -4 -14 -3 -21 2 -8 7
-12 5 -12 -4z"/>
<path d="M206 875 c-11 -8 -15 -15 -9 -15 6 0 16 7 23 15 16 19 11 19 -14 0z"/>
<path d="M250 872 c0 -4 12 -8 28 -9 23 -1 24 -1 7 7 -26 11 -35 12 -35 2z"/>
<path d="M3293 865 c0 -8 4 -12 9 -9 5 3 6 10 3 15 -9 13 -12 11 -12 -6z"/>
<path d="M3220 856 c0 -2 9 -6 20 -9 11 -3 18 -1 14 4 -5 9 -34 13 -34 5z"/>
<path d="M3180 840 c-8 -5 -11 -13 -6 -17 5 -4 11 -2 13 5 4 10 9 10 22 -2 15
-14 18 -14 18 -1 0 8 -4 12 -9 9 -4 -3 -8 0 -8 5 0 13 -10 14 -30 1z"/>
<path d="M226 832 c-3 -5 1 -9 9 -9 8 0 12 4 9 9 -3 4 -7 8 -9 8 -2 0 -6 -4
-9 -8z"/>
<path d="M290 833 c5 -2 10 -9 10 -14 0 -6 -4 -8 -8 -5 -4 2 -14 0 -22 -5 -11
-7 -8 -8 10 -6 26 4 35 28 12 33 -7 1 -8 0 -2 -3z"/>
<path d="M3145 819 c-4 -6 -5 -12 -2 -15 2 -3 7 2 10 11 7 17 1 20 -8 4z"/>
<path d="M330 799 c0 -5 -4 -8 -8 -5 -5 3 -8 -8 -8 -24 0 -16 3 -27 7 -24 4 2
10 -2 12 -8 4 -9 6 -10 6 -1 1 6 -3 15 -9 18 -5 3 -10 11 -10 17 0 6 8 4 18
-5 16 -15 18 -15 18 2 0 13 -5 17 -16 13 -13 -5 -13 -3 -1 11 9 11 10 17 2 17
-6 0 -11 -5 -11 -11z"/>
<path d="M3181 788 c-13 -22 -13 -22 4 -8 10 8 21 14 24 13 3 -1 8 1 11 4 3 4
0 3 -7 0 -6 -4 -13 -3 -15 3 -2 6 -9 0 -17 -12z"/>
<path d="M3003 788 c4 -11 1 -18 -6 -18 -9 0 -9 -2 0 -8 9 -6 7 -11 -7 -20
-11 -7 -21 -8 -25 -2 -3 5 -23 -7 -44 -28 -31 -30 -36 -39 -24 -48 11 -10 11
-14 -3 -25 -15 -12 -18 -12 -27 2 -9 15 -12 14 -33 -4 -13 -11 -21 -23 -19
-27 3 -4 -2 -13 -10 -20 -8 -7 -15 -10 -15 -6 0 4 -11 -1 -25 -10 -14 -9 -22
-21 -19 -28 3 -6 -2 -2 -10 8 -9 11 -19 17 -23 13 -3 -4 1 -15 9 -24 21 -24
13 -49 -10 -31 -9 8 -13 8 -9 2 4 -7 0 -14 -8 -17 -9 -4 -12 -1 -8 9 3 7 0 14
-6 14 -6 0 -10 -6 -9 -12 2 -7 -4 -13 -12 -13 -13 0 -34 -21 -35 -35 0 -3 -4
-12 -9 -20 -6 -10 -2 -9 11 3 20 18 21 18 38 -5 13 -17 16 -18 11 -5 -4 12 -2
17 6 15 7 -3 13 -11 14 -19 2 -29 4 -31 19 -19 8 6 18 9 23 6 5 -3 9 1 9 9 0
13 -3 13 -22 1 -21 -14 -22 -13 -22 10 0 19 2 22 12 14 11 -9 13 -5 11 15 -2
14 1 28 5 31 5 3 9 0 9 -7 0 -6 8 -9 19 -6 19 5 37 -16 32 -36 -1 -5 3 -6 9
-2 13 8 -18 55 -33 49 -7 -2 -13 6 -13 20 -2 22 0 23 17 13 11 -7 22 -20 25
-30 3 -10 8 -16 11 -14 2 3 -3 19 -11 36 -20 39 -21 52 0 23 15 -22 34 -22 34
1 0 8 -3 8 -9 -2 -6 -9 -11 -10 -15 -3 -4 6 2 16 13 21 14 8 21 8 24 -2 4 -9
6 -9 6 1 1 8 6 10 14 6 9 -6 9 -5 0 8 -13 15 -8 28 9 28 5 0 6 -6 3 -12 -4 -7
0 -5 8 5 15 18 16 18 26 0 6 -10 11 -13 11 -7 0 6 -7 17 -15 24 -8 7 -12 17
-9 22 4 6 9 5 14 -2 4 -7 15 -10 24 -7 18 7 22 27 5 27 -5 0 -7 -4 -4 -10 3
-5 2 -10 -4 -10 -18 0 -23 20 -6 26 10 4 14 13 11 23 -4 11 -2 10 9 -3 8 -11
15 -24 15 -30 0 -5 3 -7 6 -4 3 4 1 16 -6 27 -7 15 -7 21 0 21 6 0 13 -7 16
-15 4 -8 10 -15 15 -15 4 0 6 7 3 15 -4 8 -1 15 5 15 10 0 15 -14 12 -33 -1
-5 3 -6 9 -2 7 4 7 13 -1 26 -7 15 -16 18 -32 13 -18 -5 -20 -4 -10 7 12 12
32 19 63 21 17 1 77 48 61 48 -5 0 -17 -7 -25 -16 -9 -8 -16 -11 -16 -5 0 6
-6 11 -14 11 -8 0 -22 10 -32 23 -11 15 -15 16 -11 5z m57 -54 c0 -3 -11 -2
-25 0 -14 3 -25 0 -25 -6 0 -6 -3 -8 -7 -5 -3 4 -14 0 -24 -9 -9 -8 -26 -17
-36 -18 -10 -2 -19 -8 -19 -14 -3 -22 -4 -23 -15 -16 -12 7 39 65 55 62 18 -4
57 22 50 34 -4 5 5 2 20 -7 14 -10 26 -19 26 -21z m-170 -122 c3 -3 -6 -1 -19
3 -15 5 -21 4 -17 -3 3 -6 2 -13 -4 -17 -6 -4 -8 -10 -5 -15 3 -5 -4 -7 -15
-5 -11 2 -20 -1 -20 -6 0 -5 -8 -9 -17 -7 -12 2 -18 -3 -17 -15 2 -14 -1 -15
-12 -6 -12 10 -12 14 3 24 10 7 21 11 24 9 7 -4 44 34 44 45 0 3 3 5 8 4 4 -2
7 2 7 8 0 10 9 6 40 -19z m-177 -131 c4 -1 7 -6 7 -13 0 -6 -3 -9 -6 -5 -3 3
-17 2 -30 -3 -14 -6 -26 -6 -29 1 -4 5 -11 6 -17 3 -7 -4 -8 -2 -4 5 4 6 11 9
16 6 5 -3 11 -1 14 4 4 5 14 8 24 6 9 -2 20 -4 25 -4z"/>
<path d="M2945 710 c-3 -6 1 -7 9 -4 18 7 21 14 7 14 -6 0 -13 -4 -16 -10z"/>
<path d="M2833 613 c4 -3 1 -13 -6 -22 -11 -14 -10 -14 5 -2 16 12 16 31 1 31
-4 0 -3 -3 0 -7z"/>
<path d="M264 760 c0 -13 4 -16 10 -10 7 7 7 13 0 20 -6 6 -10 3 -10 -10z"/>
<path d="M3126 754 c-19 -18 -21 -34 -4 -34 6 0 8 3 5 7 -4 3 0 15 10 25 20
22 11 24 -11 2z"/>
<path d="M236 732 c-3 -5 1 -9 9 -9 8 0 12 4 9 9 -3 4 -7 8 -9 8 -2 0 -6 -4
-9 -8z"/>
<path d="M280 729 c-13 -9 -13 -10 2 -6 9 4 19 -1 22 -10 4 -9 9 -13 13 -10 3
4 12 -1 20 -11 13 -15 14 -15 9 0 -3 9 0 19 7 22 7 2 1 3 -13 2 -14 -2 -29 3
-35 10 -7 10 -14 11 -25 3z"/>
<path d="M3150 729 c0 -5 5 -7 10 -4 6 3 10 8 10 11 0 2 -4 4 -10 4 -5 0 -10
-5 -10 -11z"/>
<path d="M3028 703 c7 -3 16 -2 19 1 4 3 -2 6 -13 5 -11 0 -14 -3 -6 -6z"/>
<path d="M284 689 c-4 -7 -3 -9 4 -5 5 3 13 0 15 -6 4 -9 6 -10 6 -1 1 17 -16
25 -25 12z"/>
<path d="M3053 686 c-3 -6 -3 -8 2 -4 4 4 13 3 20 -2 8 -7 12 -5 12 3 0 16
-25 18 -34 3z"/>
<path d="M251 677 c-8 -10 -7 -14 2 -14 8 0 14 6 14 14 0 7 -1 13 -2 13 -2 0
-8 -6 -14 -13z"/>
<path d="M321 664 c0 -11 3 -14 6 -6 3 7 2 16 -1 19 -3 4 -6 -2 -5 -13z"/>
<path d="M295 650 c-3 -6 1 -13 9 -16 9 -3 13 -11 9 -18 -4 -6 2 -4 13 4 10 8
21 16 24 18 3 2 -2 3 -10 2 -27 -4 -41 0 -35 10 3 6 4 10 1 10 -3 0 -8 -5 -11
-10z"/>
<path d="M3050 649 c0 -5 5 -7 10 -4 6 3 10 8 10 11 0 2 -4 4 -10 4 -5 0 -10
-5 -10 -11z"/>
<path d="M257 643 c-10 -9 -9 -23 1 -23 5 0 9 7 9 15 0 17 -1 18 -10 8z"/>
<path d="M2980 629 c0 -5 5 -7 10 -4 6 3 10 8 10 11 0 2 -4 4 -10 4 -5 0 -10
-5 -10 -11z"/>
<path d="M335 610 c-3 -5 -3 -10 2 -10 4 0 1 -5 -7 -11 -10 -7 -11 -9 -2 -7 8
2 13 7 12 12 -1 5 4 13 12 17 9 6 9 9 1 9 -6 0 -15 -4 -18 -10z"/>
<path d="M2953 600 c1 -21 10 -18 13 5 1 8 -2 15 -6 15 -5 0 -8 -9 -7 -20z"/>
<path d="M2747 594 c3 -7 9 -14 14 -14 14 0 10 17 -5 23 -10 4 -13 1 -9 -9z"/>
<path d="M209 587 c6 -8 7 -18 3 -22 -4 -5 -1 -5 6 -1 10 6 10 11 1 22 -6 8
-14 14 -16 14 -3 0 0 -6 6 -13z"/>
<path d="M245 589 c-3 -4 2 -6 10 -5 21 3 28 13 10 13 -9 0 -18 -4 -20 -8z"/>
<path d="M290 590 c0 -5 5 -10 10 -10 6 0 10 5 10 10 0 6 -4 10 -10 10 -5 0
-10 -4 -10 -10z"/>
<path d="M2893 575 c4 -5 -2 -14 -14 -20 -20 -11 -20 -12 -3 -19 10 -4 15 -4
11 0 -4 4 1 12 10 19 13 10 14 13 2 20 -8 5 -10 4 -6 0z"/>
<path d="M2935 550 c2 -27 10 -33 12 -10 1 11 -2 22 -6 24 -4 3 -7 -4 -6 -14z"/>
<path d="M315 550 c-3 -6 1 -7 9 -4 18 7 21 14 7 14 -6 0 -13 -4 -16 -10z"/>
<path d="M235 541 c-3 -5 -2 -12 3 -15 5 -3 9 1 9 9 0 17 -3 19 -12 6z"/>
<path d="M2833 522 c-8 -14 -8 -19 1 -19 7 0 13 9 13 19 1 10 1 18 0 18 -1 0
-7 -8 -14 -18z"/>
<path d="M175 511 c-3 -5 -2 -12 3 -15 5 -3 9 1 9 9 0 17 -3 19 -12 6z"/>
<path d="M295 510 c-3 -6 1 -7 9 -4 18 7 21 14 7 14 -6 0 -13 -4 -16 -10z"/>
<path d="M330 516 c0 -2 7 -7 16 -10 8 -3 12 -2 9 4 -6 10 -25 14 -25 6z"/>
<path d="M323 493 c9 -2 14 -9 11 -15 -4 -7 -2 -8 5 -4 15 10 4 26 -17 25 -15
-1 -15 -2 1 -6z"/>
<path d="M277 480 c7 -8 20 -15 29 -16 9 -1 13 1 9 4 -4 4 -10 7 -13 7 -4 0
-14 4 -22 9 -12 7 -13 6 -3 -4z"/>
<path d="M255 450 c-3 -5 -1 -10 4 -10 6 0 11 5 11 10 0 6 -2 10 -4 10 -3 0
-8 -4 -11 -10z"/>
<path d="M341 440 c14 -31 19 -36 19 -24 0 6 -7 19 -16 30 -14 18 -14 18 -3
-6z"/>
<path d="M2740 456 c0 -2 9 -6 20 -9 11 -3 18 -1 14 4 -5 9 -34 13 -34 5z"/>
<path d="M2775 421 c-3 -5 -2 -12 3 -15 5 -3 9 1 9 9 0 17 -3 19 -12 6z"/>
<path d="M2656 395 c4 -8 8 -15 10 -15 2 0 4 7 4 15 0 8 -4 15 -10 15 -5 0 -7
-7 -4 -15z"/>
<path d="M315 391 c3 -2 -1 -11 -7 -20 -10 -12 -7 -12 8 2 11 9 24 14 27 10 4
-3 7 -1 7 5 0 6 -9 10 -20 9 -10 -1 -17 -3 -15 -6z"/>
<path d="M2516 391 c-3 -5 1 -11 9 -14 9 -4 12 -1 8 9 -6 16 -10 17 -17 5z"/>
<path d="M2687 389 c7 -7 15 -10 18 -7 3 3 -2 9 -12 12 -14 6 -15 5 -6 -5z"/>
<path d="M2630 381 c0 -5 7 -11 14 -14 10 -4 13 -1 9 9 -6 15 -23 19 -23 5z"/>
<path d="M269 353 c-13 -16 -12 -17 4 -4 9 7 17 15 17 17 0 8 -8 3 -21 -13z"/>
<path d="M350 351 c0 -11 4 -22 9 -25 4 -3 6 6 3 19 -5 30 -12 33 -12 6z"/>
<path d="M2665 350 c-3 -6 1 -7 9 -4 18 7 21 14 7 14 -6 0 -13 -4 -16 -10z"/>
<path d="M2710 356 c0 -2 7 -7 16 -10 8 -3 12 -2 9 4 -6 10 -25 14 -25 6z"/>
<path d="M2615 330 c-4 -6 -1 -9 7 -8 7 2 12 -3 10 -10 -1 -8 2 -11 8 -7 8 5
7 11 -1 21 -14 17 -16 17 -24 4z"/>
<path d="M2591 314 c0 -11 3 -14 6 -6 3 7 2 16 -1 19 -3 4 -6 -2 -5 -13z"/>
<path d="M314 282 c3 -20 33 -36 33 -18 0 9 -7 12 -16 8 -13 -5 -14 -3 -4 9
10 13 10 16 -1 16 -8 0 -13 -7 -12 -15z"/>
<path d="M2382 280 c-13 -21 -6 -26 15 -12 7 4 9 13 5 19 -6 9 -11 6 -20 -7z"/>
<path d="M2560 290 c8 -5 20 -10 25 -10 6 0 3 5 -5 10 -8 5 -19 10 -25 10 -5
0 -3 -5 5 -10z"/>
<path d="M2548 273 c10 -4 10 -8 0 -21 -12 -15 -11 -16 4 -3 19 14 15 32 -5
30 -8 0 -8 -2 1 -6z"/>
<path d="M2470 230 c0 -5 5 -10 10 -10 6 0 10 5 10 10 0 6 -4 10 -10 10 -5 0
-10 -4 -10 -10z"/>
<path d="M355 201 c-3 -6 -14 -8 -25 -6 -11 2 -22 0 -24 -4 -8 -12 36 -7 59 7
11 6 15 12 8 12 -6 0 -14 -4 -18 -9z"/>
<path d="M2272 190 c-7 -12 -10 -25 -7 -30 13 -21 -7 -31 -26 -14 -10 9 -19
12 -19 6 0 -6 8 -16 18 -21 12 -8 13 -10 3 -11 -11 0 -10 -4 5 -16 18 -14 18
-15 -4 -4 -12 6 -20 16 -16 22 4 6 1 9 -7 6 -8 -3 -13 -14 -13 -26 1 -12 -3
-19 -9 -15 -6 4 -7 1 -2 -7 5 -9 4 -11 -4 -6 -8 6 -9 12 -2 20 11 13 5 26 -11
26 -5 0 -7 -4 -3 -9 3 -5 -2 -17 -11 -25 -11 -12 -12 -16 -2 -16 8 -1 7 -4 -4
-11 -9 -5 -15 -16 -12 -24 4 -8 11 -12 16 -9 6 4 5 10 -3 15 -10 6 -10 9 -2 9
17 0 26 -19 16 -33 -4 -7 -1 -5 9 5 17 19 33 25 23 8 -3 -5 -2 -10 4 -10 5 0
13 9 16 20 3 11 14 20 23 20 14 0 15 2 2 10 -9 6 -17 5 -22 -3 -4 -7 -8 -10
-9 -7 0 3 -2 13 -4 23 -3 14 1 17 13 11 9 -4 25 -7 35 -8 14 0 17 -6 12 -23
-3 -13 -2 -23 3 -23 13 0 13 50 -1 56 -15 5 -19 34 -6 34 5 0 13 -9 19 -20 6
-11 16 -20 23 -20 7 0 6 4 -3 10 -13 9 -7 14 13 11 4 0 7 4 7 10 0 6 -9 8 -22
4 -22 -7 -22 -6 -6 11 15 15 15 20 2 46 -8 15 -16 28 -17 28 -1 0 -8 -9 -15
-20z m27 -24 c9 -10 8 -16 -4 -26 -9 -7 -15 -8 -15 -2 0 6 -3 17 -6 26 -8 20
9 21 25 2z m-95 -101 c5 0 11 -5 13 -11 2 -6 -6 -10 -18 -9 -12 1 -23 9 -25
18 -1 11 2 14 9 10 7 -4 16 -8 21 -8z"/>
<path d="M2399 173 c-5 -36 -5 -62 -1 -58 7 7 12 65 6 65 -2 0 -4 -3 -5 -7z"/>
<path d="M360 150 c-9 -6 -10 -10 -3 -10 6 0 15 5 18 10 8 12 4 12 -15 0z"/>
<path d="M296 128 c3 -5 10 -6 15 -3 13 9 11 12 -6 12 -8 0 -12 -4 -9 -9z"/>
<path d="M423 109 c3 -9 -3 -22 -13 -29 -19 -13 -19 -14 0 -27 11 -8 20 -19
20 -25 0 -7 -6 -6 -15 2 -10 9 -15 9 -15 1 0 -6 5 -11 11 -11 5 0 7 -6 3 -12
-5 -9 -2 -8 9 1 10 8 15 21 12 32 -6 18 8 20 35 4 9 -5 7 0 -4 14 -13 14 -23
18 -30 11 -18 -18 -30 -11 -13 8 12 13 13 21 6 32 -9 13 -10 13 -6 -1z"/>
<path d="M395 99 c-4 -6 -5 -12 -2 -15 2 -3 7 2 10 11 7 17 1 20 -8 4z"/>
<path d="M2414 88 c-4 -7 -3 -10 1 -5 5 4 18 -1 29 -10 21 -18 21 -18 2 5 -22
26 -23 26 -32 10z"/>
<path d="M326 68 c2 -4 14 -5 26 -3 32 7 32 13 -1 11 -16 0 -27 -4 -25 -8z"/>
<path d="M2326 68 c3 -5 10 -6 15 -3 13 9 11 12 -6 12 -8 0 -12 -4 -9 -9z"/>
<path d="M2355 61 c-3 -5 -2 -12 3 -15 5 -3 9 1 9 9 0 17 -3 19 -12 6z"/>
<path d="M295 50 c-3 -5 -1 -10 4 -10 6 0 11 5 11 10 0 6 -2 10 -4 10 -3 0 -8
-4 -11 -10z"/>
<path d="M364 49 c-4 -7 -3 -9 4 -5 5 3 13 0 15 -6 4 -9 6 -10 6 -1 1 17 -16
25 -25 12z"/>
<path d="M2235 10 c3 -5 8 -10 11 -10 2 0 4 5 4 10 0 6 -5 10 -11 10 -5 0 -7
-4 -4 -10z"/>
</g>
</svg>
